<svg xmlns="http://www.w3.org/2000/svg" width="102.839" height="52.281" viewBox="0 0 102.839 52.281">
  <g id="Group_18" data-name="Group 18" transform="translate(0)">
    <g id="Group_17" data-name="Group 17" transform="translate(0)">
      <g id="Group_10" data-name="Group 10" transform="translate(54.78 11.995)">
        <path id="Path_11" data-name="Path 11" d="M-2451.521,2421.1s-.144,1.119,2.668,2.718,5.926,3.223,8.972,5.191c1.435.887,3.488,2.377,8.216,1.49s11.335-1.423,26.119-14.231c1.092-.957,2.274-2.008,2-2.381s-.691-.011-1.6.745-12.808,9.091-19.07,11.465c-1.693.654-2.873.842-3.068-.216a3.076,3.076,0,0,1,1.859-2.925c1.186-.589,9.115-4.343,15.057-17.073.871-2.07,1.56-6.287.792-6.631,0,0-.292-.209-.526.8a21.657,21.657,0,0,1-1.991,5.995c-1.205,2.013-7.032,12.184-14.018,13.833-1.068.076-2.283,0-2.991-2.2s-1.454-4.267-2.062-6.273a17.694,17.694,0,0,1,.6-9.252,22.3,22.3,0,0,0,1.357-5.756c.257-1.291.511-2.075.358-2.16s-.208.029-.325.345-.982,2.676-1.635,4.005-3.087,5.431-3.182,10.062,3.005,8.947,3.212,12.312-.732,6.123-3.427,6.108a7.8,7.8,0,0,1-5.215-1.685c-.583-.64-.277-1.225.314-1.346s2.673-.664,2.673-.664.678-.107.629-.618a5.553,5.553,0,0,0-.16-.9s.039-.412-.907-.108a14.133,14.133,0,0,1-2.387.53,16.977,16.977,0,0,1-2.559.332,12.189,12.189,0,0,1-4.063-1.454c-1.563-.882-3.527-1.992-4.055-2.8s-1.5-1.321-1.591-.575S-2451.521,2421.1-2451.521,2421.1Z" transform="translate(2451.564 -2394.216)" fill="#5a6d9d"/>
      </g>
      <g id="Group_11" data-name="Group 11" transform="translate(0 11.995)">
        <path id="Path_12" data-name="Path 12" d="M-2478.052,2421.1s.144,1.119-2.669,2.718-5.925,3.223-8.971,5.191c-1.434.887-3.487,2.377-8.216,1.49s-11.335-1.423-26.118-14.231c-1.093-.957-2.276-2.008-2-2.381s.689-.011,1.6.745,12.807,9.091,19.07,11.465c1.692.654,2.874.842,3.067-.216a3.077,3.077,0,0,0-1.858-2.925c-1.187-.589-9.116-4.343-15.058-17.073-.871-2.07-1.56-6.287-.792-6.631,0,0,.293-.209.528.8a21.662,21.662,0,0,0,1.989,5.995c1.207,2.013,7.034,12.184,14.019,13.833,1.069.076,2.284,0,2.992-2.2s1.453-4.267,2.063-6.273a17.7,17.7,0,0,0-.6-9.252,22.272,22.272,0,0,1-1.355-5.756c-.257-1.291-.514-2.075-.36-2.16s.208.029.327.345.981,2.676,1.633,4.005,3.088,5.431,3.183,10.062-3,8.947-3.212,12.312.732,6.123,3.427,6.108a7.8,7.8,0,0,0,5.214-1.685c.584-.64.277-1.225-.313-1.346s-2.674-.664-2.674-.664-.679-.107-.631-.618a5.582,5.582,0,0,1,.16-.9s-.039-.412.908-.108a14.149,14.149,0,0,0,2.387.53,16.985,16.985,0,0,0,2.558.332,12.189,12.189,0,0,0,4.064-1.454c1.563-.882,3.526-1.992,4.055-2.8s1.495-1.321,1.591-.575S-2478.052,2421.1-2478.052,2421.1Z" transform="translate(2526.068 -2394.216)" fill="#5a6d9d"/>
      </g>
      <g id="Group_12" data-name="Group 12" transform="translate(34.567 13.049)">
        <path id="Path_13" data-name="Path 13" d="M-2478.3,2407.034a5.339,5.339,0,0,1-.758-3.1v-4.083a5.27,5.27,0,0,1,.78-3.143,3.127,3.127,0,0,1,2.687-1.059,3.273,3.273,0,0,1,2.581.894,3.928,3.928,0,0,1,.78,2.649v.629h-2.116v-.689a5.317,5.317,0,0,0-.082-1.051,1.006,1.006,0,0,0-.346-.6,1.244,1.244,0,0,0-.787-.21,1.123,1.123,0,0,0-.825.271,1.3,1.3,0,0,0-.353.691,5.829,5.829,0,0,0-.083,1.094v5.089a3.338,3.338,0,0,0,.278,1.546,1.078,1.078,0,0,0,1.043.509,1.082,1.082,0,0,0,1.043-.54,3.51,3.51,0,0,0,.293-1.621v-1.14h-1.306v-1.4h3.3v6.168h-1.442l-.149-1.185a2.06,2.06,0,0,1-2.056,1.351A2.828,2.828,0,0,1-2478.3,2407.034Z" transform="translate(2479.055 -2395.65)" fill="#5a6d9d"/>
        <path id="Path_14" data-name="Path 14" d="M-2463.743,2395.834h2.371l2.432,12.157H-2461l-.481-2.806h-2.116l-.495,2.806h-2.087Zm2.025,7.94-.825-5.1-.825,5.1Z" transform="translate(2475.645 -2395.699)" fill="#5a6d9d"/>
        <path id="Path_15" data-name="Path 15" d="M-2452.29,2397.471h-2.026v-1.637h6.228v1.637h-2v10.52h-2.207Z" transform="translate(2472.506 -2395.699)" fill="#5a6d9d"/>
        <path id="Path_16" data-name="Path 16" d="M-2441.992,2407.177a4.377,4.377,0,0,1-.893-2.776l1.906-.375a4.2,4.2,0,0,0,.368,1.764,1.071,1.071,0,0,0,1.012.607.918.918,0,0,0,.758-.307,1.29,1.29,0,0,0,.248-.833,2.179,2.179,0,0,0-.323-1.217,5.85,5.85,0,0,0-1.013-1.11l-1.531-1.336a4.757,4.757,0,0,1-1.058-1.3,3.489,3.489,0,0,1-.353-1.645,2.881,2.881,0,0,1,.841-2.221,3.288,3.288,0,0,1,2.327-.781,2.627,2.627,0,0,1,2.236.894,4.438,4.438,0,0,1,.78,2.409l-1.906.329a4.487,4.487,0,0,0-.262-1.486.834.834,0,0,0-.848-.51,1.037,1.037,0,0,0-.8.315,1.162,1.162,0,0,0-.293.826,1.822,1.822,0,0,0,.24.975,4.2,4.2,0,0,0,.75.856l1.516,1.335a6.662,6.662,0,0,1,1.336,1.591,3.782,3.782,0,0,1,.48,1.936,3.075,3.075,0,0,1-.383,1.546,2.724,2.724,0,0,1-1.072,1.058,3.227,3.227,0,0,1-1.593.383A3.109,3.109,0,0,1-2441.992,2407.177Z" transform="translate(2469.479 -2395.65)" fill="#5a6d9d"/>
      </g>
      <g id="Group_14" data-name="Group 14" transform="translate(46.535 29.538)">
        <g id="Group_13" data-name="Group 13">
          <path id="Path_17" data-name="Path 17" d="M-2462.778,2418.1h.965v2.406h-.46v-2h-.5Z" transform="translate(2462.778 -2418.083)" fill="#5a6d9d"/>
          <path id="Path_18" data-name="Path 18" d="M-2459.845,2420.1a.976.976,0,0,0,.275.04.569.569,0,0,0,.484-.214.932.932,0,0,0,.155-.59.616.616,0,0,1-.254.237.818.818,0,0,1-.379.083.749.749,0,0,1-.559-.209.77.77,0,0,1-.206-.564.854.854,0,0,1,.1-.429.722.722,0,0,1,.3-.282.973.973,0,0,1,.451-.1.962.962,0,0,1,.527.141.9.9,0,0,1,.34.4,1.534,1.534,0,0,1,.119.629,1.638,1.638,0,0,1-.129.67,1.011,1.011,0,0,1-.366.445.979.979,0,0,1-.553.156,1.477,1.477,0,0,1-.38-.052,1.438,1.438,0,0,1-.348-.137l.179-.34A.88.88,0,0,0-2459.845,2420.1Zm.062-1.527a.4.4,0,0,0-.124.313.4.4,0,0,0,.116.3.451.451,0,0,0,.32.11.477.477,0,0,0,.347-.122.4.4,0,0,0,.124-.3.4.4,0,0,0-.116-.288.45.45,0,0,0-.341-.124A.459.459,0,0,0-2459.784,2418.577Z" transform="translate(2462.13 -2418.076)" fill="#5a6d9d"/>
          <path id="Path_19" data-name="Path 19" d="M-2455.386,2418.246a.556.556,0,0,1,.218.462.525.525,0,0,1-.089.3.6.6,0,0,1-.247.209.738.738,0,0,1,.335.24.61.61,0,0,1,.121.371.615.615,0,0,1-.113.368.709.709,0,0,1-.325.242,1.332,1.332,0,0,1-.493.084,1.335,1.335,0,0,1-.493-.084.731.731,0,0,1-.324-.238.6.6,0,0,1-.113-.364.594.594,0,0,1,.127-.377.752.752,0,0,1,.351-.242.667.667,0,0,1-.263-.22.532.532,0,0,1-.095-.306.532.532,0,0,1,.219-.448.945.945,0,0,1,.59-.167A.944.944,0,0,1-2455.386,2418.246Zm-.961,1.266a.318.318,0,0,0-.13.271.333.333,0,0,0,.13.279.6.6,0,0,0,.368.1.6.6,0,0,0,.366-.1.324.324,0,0,0,.132-.277.32.32,0,0,0-.132-.273.609.609,0,0,0-.369-.1A.6.6,0,0,0-2456.347,2419.512Zm.058-1.021a.285.285,0,0,0-.112.241.283.283,0,0,0,.112.24.493.493,0,0,0,.31.086.491.491,0,0,0,.31-.086.286.286,0,0,0,.109-.24.288.288,0,0,0-.109-.241.493.493,0,0,0-.31-.086A.5.5,0,0,0-2456.289,2418.491Z" transform="translate(2461.225 -2418.076)" fill="#5a6d9d"/>
          <path id="Path_20" data-name="Path 20" d="M-2453.653,2418.1h1.856v.344l-.991,2.062h-.487l.959-2h-.924l0,.341h-.409Z" transform="translate(2460.362 -2418.083)" fill="#5a6d9d"/>
        </g>
      </g>
      <g id="Group_15" data-name="Group 15" transform="translate(39.492 48.784)">
        <path id="Path_21" data-name="Path 21" d="M-2469.986,2444.54a.729.729,0,0,1,.314.623.764.764,0,0,1-.158.484.763.763,0,0,1-.436.27.879.879,0,0,1,.533.292.856.856,0,0,1,.193.569.81.81,0,0,1-.338.688,1.522,1.522,0,0,1-.922.25h-1.556v-3.4h1.512A1.431,1.431,0,0,1-2469.986,2444.54Zm-.5,1.051a.372.372,0,0,0,.143-.312.355.355,0,0,0-.143-.3.64.64,0,0,0-.4-.1h-.826v.827h.826A.633.633,0,0,0-2470.482,2445.59Zm.089,1.445a.392.392,0,0,0,.176-.341.378.378,0,0,0-.176-.329.835.835,0,0,0-.486-.113h-.826v.9h.826A.816.816,0,0,0-2470.393,2447.035Z" transform="translate(2472.357 -2444.267)" fill="#5a6d9d"/>
        <path id="Path_22" data-name="Path 22" d="M-2464.639,2447.715l-.3-.719h-1.663l-.3.719h-.677l1.493-3.4h.677l1.473,3.4Zm-1.731-1.279h1.2l-.593-1.429Z" transform="translate(2471.093 -2444.267)" fill="#5a6d9d"/>
        <path id="Path_23" data-name="Path 23" d="M-2459.272,2447.715l-.589-1.006a1.136,1.136,0,0,1-.121.005h-.769v1h-.651v-3.4h1.42a1.529,1.529,0,0,1,1.021.307,1.073,1.073,0,0,1,.36.865,1.277,1.277,0,0,1-.173.682,1.045,1.045,0,0,1-.5.422l.749,1.128Zm-1.479-1.575h.769a.865.865,0,0,0,.564-.161.579.579,0,0,0,.194-.477.56.56,0,0,0-.194-.467.882.882,0,0,0-.564-.155h-.769Z" transform="translate(2469.457 -2444.267)" fill="#5a6d9d"/>
        <path id="Path_24" data-name="Path 24" d="M-2453.829,2447.715l-.588-1.006a1.14,1.14,0,0,1-.121.005h-.768v1h-.652v-3.4h1.42a1.532,1.532,0,0,1,1.022.307,1.079,1.079,0,0,1,.36.865,1.283,1.283,0,0,1-.173.682,1.053,1.053,0,0,1-.5.422l.748,1.128Zm-1.478-1.575h.768a.87.87,0,0,0,.565-.161.581.581,0,0,0,.194-.477.563.563,0,0,0-.194-.467.887.887,0,0,0-.565-.155h-.768Z" transform="translate(2468.016 -2444.267)" fill="#5a6d9d"/>
        <path id="Path_25" data-name="Path 25" d="M-2448.143,2444.48a1.7,1.7,0,0,1,.654.627,1.693,1.693,0,0,1,.239.885,1.706,1.706,0,0,1-.239.887,1.733,1.733,0,0,1-.654.635,1.846,1.846,0,0,1-.921.234,1.841,1.841,0,0,1-.921-.234,1.737,1.737,0,0,1-.654-.635,1.7,1.7,0,0,1-.238-.887,1.686,1.686,0,0,1,.238-.885,1.7,1.7,0,0,1,.654-.627,1.869,1.869,0,0,1,.921-.229A1.874,1.874,0,0,1-2448.143,2444.48Zm-1.49.508a1.147,1.147,0,0,0-.423.417,1.14,1.14,0,0,0-.155.587,1.136,1.136,0,0,0,.157.588,1.182,1.182,0,0,0,.423.424,1.122,1.122,0,0,0,.576.155,1.1,1.1,0,0,0,.57-.155,1.158,1.158,0,0,0,.416-.424,1.164,1.164,0,0,0,.153-.588,1.153,1.153,0,0,0-.153-.587,1.138,1.138,0,0,0-.416-.417,1.106,1.106,0,0,0-.57-.154A1.138,1.138,0,0,0-2449.633,2444.989Z" transform="translate(2466.671 -2444.251)" fill="#5a6d9d"/>
        <path id="Path_26" data-name="Path 26" d="M-2442.128,2444.31h.633v3.4h-.618l-1.751-2.343v2.343h-.637v-3.4h.617l1.756,2.35Z" transform="translate(2464.983 -2444.267)" fill="#5a6d9d"/>
      </g>
      <g id="Group_16" data-name="Group 16" transform="translate(28.843)">
        <path id="Path_27" data-name="Path 27" d="M-2486.84,2387.894l1.777-1.318.315.434-1.28.949.516.695,1.166-.865.319.431-1.166.864.756,1.019-.492.365Z" transform="translate(2486.84 -2380.198)" fill="#5a6d9d"/>
        <path id="Path_28" data-name="Path 28" d="M-2480.761,2384.225a1.6,1.6,0,0,1,.83.2,1.608,1.608,0,0,1,.614.607,1.6,1.6,0,0,1,.227.836,1.63,1.63,0,0,1-.231.826,1.732,1.732,0,0,1-.64.626,1.737,1.737,0,0,1-.86.248,1.631,1.631,0,0,1-.835-.207,1.609,1.609,0,0,1-.615-.609,1.593,1.593,0,0,1-.226-.833,1.616,1.616,0,0,1,.235-.821,1.788,1.788,0,0,1,.642-.623A1.76,1.76,0,0,1-2480.761,2384.225Zm-.972,1.12a1.085,1.085,0,0,0-.146.541,1.063,1.063,0,0,0,.152.55,1.064,1.064,0,0,0,.407.4,1.109,1.109,0,0,0,.545.144,1.061,1.061,0,0,0,.543-.147,1.025,1.025,0,0,0,.39-.4,1.081,1.081,0,0,0,.137-.542,1.1,1.1,0,0,0-.154-.551,1.082,1.082,0,0,0-.4-.4,1.063,1.063,0,0,0-.537-.143,1.051,1.051,0,0,0-.535.145A1.077,1.077,0,0,0-2481.733,2385.345Z" transform="translate(2485.69 -2379.576)" fill="#5a6d9d"/>
        <path id="Path_29" data-name="Path 29" d="M-2475.389,2381.645a1.6,1.6,0,0,1,.8.3,1.593,1.593,0,0,1,.534.678,1.59,1.59,0,0,1,.122.857,1.639,1.639,0,0,1-.332.792,1.742,1.742,0,0,1-.711.542,1.742,1.742,0,0,1-.885.14,1.631,1.631,0,0,1-.8-.309,1.6,1.6,0,0,1-.534-.679,1.589,1.589,0,0,1-.122-.855,1.615,1.615,0,0,1,.335-.786,1.772,1.772,0,0,1,.713-.538A1.778,1.778,0,0,1-2475.389,2381.645Zm-1.1.992a1.078,1.078,0,0,0-.211.519,1.067,1.067,0,0,0,.082.566,1.059,1.059,0,0,0,.354.451,1.108,1.108,0,0,0,.524.21,1.049,1.049,0,0,0,.556-.079,1.012,1.012,0,0,0,.435-.345,1.079,1.079,0,0,0,.2-.521,1.1,1.1,0,0,0-.085-.567,1.091,1.091,0,0,0-.35-.451,1.07,1.07,0,0,0-.515-.208,1.057,1.057,0,0,0-.55.077A1.1,1.1,0,0,0-2476.492,2382.637Z" transform="translate(2484.323 -2378.891)" fill="#5a6d9d"/>
        <path id="Path_30" data-name="Path 30" d="M-2469.766,2379.8a1.485,1.485,0,0,1,.729.385,1.625,1.625,0,0,1,.436.738,1.593,1.593,0,0,1,.018.854,1.523,1.523,0,0,1-.422.716,1.83,1.83,0,0,1-.784.439l-1.259.361-.883-3.083,1.281-.367A1.79,1.79,0,0,1-2469.766,2379.8Zm.335,2.325a.958.958,0,0,0,.25-.461,1.111,1.111,0,0,0-.023-.563,1.1,1.1,0,0,0-.284-.493.972.972,0,0,0-.468-.261,1.084,1.084,0,0,0-.555.019l-.682.2.585,2.042.705-.2A1.058,1.058,0,0,0-2469.43,2382.127Z" transform="translate(2482.893 -2378.396)" fill="#5a6d9d"/>
        <path id="Path_31" data-name="Path 31" d="M-2461.9,2378.786a1.073,1.073,0,0,0-.479-.056,1.071,1.071,0,0,0-.525.2,1.028,1.028,0,0,0-.343.434,1.08,1.08,0,0,0-.078.559,1.081,1.081,0,0,0,.2.527,1.036,1.036,0,0,0,.432.347,1.048,1.048,0,0,0,.558.081,1.118,1.118,0,0,0,.446-.152,1.328,1.328,0,0,0,.376-.324l.405.359a1.882,1.882,0,0,1-.537.47,1.66,1.66,0,0,1-.656.226,1.693,1.693,0,0,1-.868-.122,1.612,1.612,0,0,1-.669-.524,1.64,1.64,0,0,1-.314-.806,1.59,1.59,0,0,1,.128-.854,1.63,1.63,0,0,1,.54-.656,1.732,1.732,0,0,1,.829-.311,1.706,1.706,0,0,1,.684.059,1.652,1.652,0,0,1,.6.313l-.3.486A1.2,1.2,0,0,0-2461.9,2378.786Z" transform="translate(2480.783 -2377.974)" fill="#5a6d9d"/>
        <path id="Path_32" data-name="Path 32" d="M-2456.258,2378.119a1.609,1.609,0,0,1,.615.592,1.607,1.607,0,0,1,.223.835,1.605,1.605,0,0,1-.227.835,1.637,1.637,0,0,1-.617.6,1.747,1.747,0,0,1-.869.218,1.743,1.743,0,0,1-.867-.221,1.642,1.642,0,0,1-.615-.6,1.61,1.61,0,0,1-.223-.837,1.6,1.6,0,0,1,.226-.833,1.614,1.614,0,0,1,.618-.59,1.763,1.763,0,0,1,.868-.212A1.765,1.765,0,0,1-2456.258,2378.119Zm-1.405.476a1.07,1.07,0,0,0-.4.393,1.069,1.069,0,0,0-.148.551,1.07,1.07,0,0,0,.148.555,1.1,1.1,0,0,0,.4.4,1.043,1.043,0,0,0,.542.148,1.033,1.033,0,0,0,.537-.145,1.078,1.078,0,0,0,.392-.4,1.093,1.093,0,0,0,.146-.554,1.085,1.085,0,0,0-.143-.552,1.063,1.063,0,0,0-.391-.394,1.043,1.043,0,0,0-.535-.146A1.08,1.08,0,0,0-2457.663,2378.595Z" transform="translate(2479.427 -2377.902)" fill="#5a6d9d"/>
        <path id="Path_33" data-name="Path 33" d="M-2452.391,2378.087l.694.095.774,2.19,1.322-1.9.695.095-.434,3.177-.558-.076.312-2.278-1.256,1.816-.391-.054-.727-2.087-.311,2.279-.553-.076Z" transform="translate(2477.835 -2377.951)" fill="#5a6d9d"/>
        <path id="Path_34" data-name="Path 34" d="M-2443.5,2380.092a1.023,1.023,0,0,1,.109.874,1.1,1.1,0,0,1-.542.739,1.333,1.333,0,0,1-.983.052l-.677-.182-.245.912-.593-.16.833-3.1,1.27.341A1.384,1.384,0,0,1-2443.5,2380.092Zm-.753,1.126a.545.545,0,0,0,.3-.385.529.529,0,0,0-.065-.473.849.849,0,0,0-.477-.28l-.646-.174-.308,1.146.646.174A.835.835,0,0,0-2444.255,2381.218Z" transform="translate(2476.143 -2378.253)" fill="#5a6d9d"/>
        <path id="Path_35" data-name="Path 35" d="M-2439.99,2384.591l-.019-.735-1.461-.566-.509.53-.594-.23,2.47-2.483.594.231.135,3.491Zm-1.084-1.713,1.051.407-.035-1.458Z" transform="translate(2475.121 -2378.75)" fill="#5a6d9d"/>
        <path id="Path_36" data-name="Path 36" d="M-2433.69,2383.887l.525.28-1.512,2.828-.513-.274-.413-2.724-1.041,1.946-.529-.282,1.512-2.829.513.274.415,2.731Z" transform="translate(2473.691 -2379.207)" fill="#5a6d9d"/>
        <path id="Path_37" data-name="Path 37" d="M-2428.164,2387.2l-2.189,1.109-.6.862-.505-.348.584-.845.257-2.473.512.354-.137,1.737,1.565-.75Z" transform="translate(2472.177 -2379.915)" fill="#5a6d9d"/>
      </g>
    </g>
  </g>
</svg>
