<svg id="Group_49" data-name="Group 49" xmlns="http://www.w3.org/2000/svg" width="67.121" height="66.394" viewBox="0 0 67.121 66.394">
  <g id="Group_44" data-name="Group 44" transform="translate(13.588 32.294)">
    <path id="Path_73" data-name="Path 73" d="M-2283.251,2412.329h1.6a3.065,3.065,0,0,1,1.289.222,1.306,1.306,0,0,1,.665.677,3.1,3.1,0,0,1,.2,1.208v2.467a3.308,3.308,0,0,1-.2,1.245,1.374,1.374,0,0,1-.656.716,2.731,2.731,0,0,1-1.246.238h-1.647Zm1.614,5.911a.98.98,0,0,0,.594-.141.639.639,0,0,0,.234-.4,4.2,4.2,0,0,0,.051-.757v-2.592a3.063,3.063,0,0,0-.058-.687.538.538,0,0,0-.247-.346,1.171,1.171,0,0,0-.59-.114h-.368v5.033Z" transform="translate(2283.251 -2412.254)" fill="#5a6d9d"/>
    <path id="Path_74" data-name="Path 74" d="M-2272.741,2412.329h1.32l1.355,6.773h-1.146l-.267-1.564h-1.18l-.275,1.564h-1.163Zm1.128,4.424-.459-2.844-.46,2.844Z" transform="translate(2280.828 -2412.254)" fill="#5a6d9d"/>
    <path id="Path_75" data-name="Path 75" d="M-2264.281,2412.329h1.229v2.977l1.346-2.977h1.178l-1.3,3.019,1.431,3.754h-1.229l-1.129-3.078-.3.511v2.567h-1.229Z" transform="translate(2278.229 -2412.254)" fill="#5a6d9d"/>
    <path id="Path_76" data-name="Path 76" d="M-2254.584,2418.6a2.591,2.591,0,0,1-.452-1.651v-2.542a2.526,2.526,0,0,1,.452-1.631,1.838,1.838,0,0,1,1.5-.552,1.829,1.829,0,0,1,1.5.552,2.531,2.531,0,0,1,.451,1.631v2.542a2.585,2.585,0,0,1-.456,1.648,1.8,1.8,0,0,1-1.493.568A1.816,1.816,0,0,1-2254.584,2418.6Zm2.056-.606a1.593,1.593,0,0,0,.142-.752v-3.119a1.589,1.589,0,0,0-.138-.744.577.577,0,0,0-.557-.251.582.582,0,0,0-.56.256,1.538,1.538,0,0,0-.142.74v3.119a1.587,1.587,0,0,0,.142.752.581.581,0,0,0,.56.26A.572.572,0,0,0-2252.527,2418Z" transform="translate(2275.781 -2412.227)" fill="#5a6d9d"/>
    <path id="Path_77" data-name="Path 77" d="M-2244.582,2413.241h-1.128v-.912h3.47v.912h-1.112v5.862h-1.229Z" transform="translate(2273.313 -2412.254)" fill="#5a6d9d"/>
    <path id="Path_78" data-name="Path 78" d="M-2236,2412.329h1.321l1.354,6.773h-1.146l-.268-1.564h-1.179l-.276,1.564h-1.163Zm1.129,4.424-.46-2.844-.46,2.844Z" transform="translate(2271.1 -2412.254)" fill="#5a6d9d"/>
  </g>
  <g id="Group_46" data-name="Group 46" transform="translate(16.786 44.535)">
    <g id="Group_45" data-name="Group 45">
      <path id="Path_79" data-name="Path 79" d="M-2274.6,2434.6a.756.756,0,0,1-.634-.273,2.115,2.115,0,0,1-.288-1.024c-.03-.259-.06-.6-.09-1.011q-.525.158-1.056.33l-.254.7q-.076.2-.105.288c-.021.057-.057.144-.109.259a1.67,1.67,0,0,1-.135.251c-.037.051-.09.118-.157.2a.651.651,0,0,1-.206.173,1.263,1.263,0,0,1-.577.135.626.626,0,0,1-.5-.221.8.8,0,0,1-.19-.542,1.211,1.211,0,0,1,.015-.188q.1-.719,1.476-1.311.39-1,1.3-3.357a1.225,1.225,0,0,1,.607-.135h.341a1.124,1.124,0,0,1,.274.045q.006.352.344,4.369a1.427,1.427,0,0,0,.083.438.187.187,0,0,0,.18.1,1.018,1.018,0,0,0,.558-.285,3.063,3.063,0,0,0,.626-.712l.209.509-.179.24A2.1,2.1,0,0,1-2274.6,2434.6Zm-3.77-.892c0,.16.06.24.179.24.091,0,.163-.064.218-.194s.165-.384.3-.734Q-2278.37,2433.373-2278.37,2433.709Zm2.578-3.53-.651,1.822q.524-.18.779-.263Z" transform="translate(2278.902 -2428.876)" fill="#5a6d9d"/>
      <path id="Path_80" data-name="Path 80" d="M-2268.545,2428.972a1.034,1.034,0,0,1,.442-.085.779.779,0,0,1,.386.074q-.075.584-.241,1.835-.344,2.615-.344,2.882t.225.267a.571.571,0,0,0,.4-.243,2.326,2.326,0,0,0,.382-.8,1.111,1.111,0,0,1,.292.442,1.713,1.713,0,0,1-.847,1.155,1.136,1.136,0,0,1-.494.127.886.886,0,0,1-.892-.479,1.222,1.222,0,0,1-1,.487,1.4,1.4,0,0,1-1.023-.412,1.463,1.463,0,0,1-.415-1.087,2.132,2.132,0,0,1,.576-1.566,1.966,1.966,0,0,1,1.462-.585h.045a1.828,1.828,0,0,1,.577.09l.224-1.887A.441.441,0,0,1-2268.545,2428.972Zm-.971,2.6a.908.908,0,0,0-.76.363,1.978,1.978,0,0,0-.334,1.083,1.066,1.066,0,0,0-.008.127.9.9,0,0,0,.176.584.557.557,0,0,0,.453.218q.473,0,.713-.667l.195-1.61A1.2,1.2,0,0,0-2269.516,2431.569Z" transform="translate(2276.986 -2428.879)" fill="#5a6d9d"/>
      <path id="Path_81" data-name="Path 81" d="M-2263.221,2433.949a2.518,2.518,0,0,1-.675.993,1.47,1.47,0,0,1-1,.386.991.991,0,0,1-.843-.371,1.37,1.37,0,0,1-.282-.851c0-.065,0-.129.008-.194l.255-2.137a1.445,1.445,0,0,1,.51-.09c.329,0,.495.123.495.368q0,.015-.124,1c-.082.656-.124,1.038-.124,1.143a.371.371,0,0,0,.413.426.691.691,0,0,0,.592-.4,3.346,3.346,0,0,0,.442-1.627h-.067a.711.711,0,0,1-.479-.142.508.508,0,0,1-.188-.4.506.506,0,0,1,.143-.375.608.608,0,0,1,.412-.149.68.68,0,0,1,.712.592,2.1,2.1,0,0,0,.322-.06v.427l-.277.045v.127A3.621,3.621,0,0,1-2263.221,2433.949Zm-.641-1.889c0,.085.073.127.218.127h.044c-.034-.135-.087-.2-.156-.2S-2263.862,2432.011-2263.862,2432.06Z" transform="translate(2275.492 -2429.58)" fill="#5a6d9d"/>
      <path id="Path_82" data-name="Path 82" d="M-2259.355,2433.291a.858.858,0,0,0,.229-.536.4.4,0,0,0-.139-.353.534.534,0,0,0-.3-.094.752.752,0,0,0-.618.394,1.632,1.632,0,0,0-.265.937,1.121,1.121,0,0,0,.258.81.86.86,0,0,0,.641.265,1.77,1.77,0,0,0,1.079-.389,2.925,2.925,0,0,0,.839-1.02,1.766,1.766,0,0,1,.3.39,3.194,3.194,0,0,1-.877,1.1,2.574,2.574,0,0,1-.745.427,2.445,2.445,0,0,1-.888.166,1.553,1.553,0,0,1-1.184-.457,1.773,1.773,0,0,1-.465-1.266,1.842,1.842,0,0,1,.581-1.349,1.906,1.906,0,0,1,1.39-.577,1.607,1.607,0,0,1,.937.251.809.809,0,0,1,.367.679,1.134,1.134,0,0,1-.46.936,2.832,2.832,0,0,1-1.263.5l-.1-.442A1.171,1.171,0,0,0-2259.355,2433.291Z" transform="translate(2274.294 -2429.634)" fill="#5a6d9d"/>
      <path id="Path_83" data-name="Path 83" d="M-2254.561,2434.5l.18-1.671a.531.531,0,0,0-.1-.337.417.417,0,0,0-.349-.135.506.506,0,0,0-.412.214,1.083,1.083,0,0,0-.213.535c-.18,1.37-.275,2.113-.285,2.234h-1.012l.413-3.53a2.073,2.073,0,0,1,.479-.083q.5,0,.525.367a1.217,1.217,0,0,1,.88-.36,1.186,1.186,0,0,1,.806.255.818.818,0,0,1,.292.645,3.1,3.1,0,0,1-.045.4q-.172,1.139-.173,1.327,0,.344.233.344.509,0,.772-1.064a1.36,1.36,0,0,1,.307.428q-.4,1.318-1.379,1.318a.826.826,0,0,1-.69-.285A.959.959,0,0,1-2254.561,2434.5Z" transform="translate(2273.039 -2429.631)" fill="#5a6d9d"/>
      <path id="Path_84" data-name="Path 84" d="M-2249.78,2429.374q0,.045-.2,1.61h1.1v.577h-1.177l-.023.188a2.1,2.1,0,0,1,.877,1.6,1.232,1.232,0,0,1-.349.981,1.239,1.239,0,0,1-.836.3.9.9,0,0,1-.712-.258.921.921,0,0,1-.224-.626,1.211,1.211,0,0,1,.014-.179l.233-1.993-.03-.016h-.607c0-.049-.007-.131-.007-.243a.884.884,0,0,1,.068-.334h.645l.24-2.038a1.217,1.217,0,0,1,.42-.059C-2249.97,2428.887-2249.78,2429.048-2249.78,2429.374Zm.075,3.971a1.531,1.531,0,0,0-.449-1.018c-.09.743-.135,1.173-.135,1.288,0,.225.073.337.217.337a.312.312,0,0,0,.262-.146A.8.8,0,0,0-2249.7,2433.345Z" transform="translate(2271.706 -2428.879)" fill="#5a6d9d"/>
      <path id="Path_85" data-name="Path 85" d="M-2244.544,2431.815q-.307,2.427-.307,2.584,0,.3.218.3a.615.615,0,0,0,.424-.267,1.963,1.963,0,0,0,.363-.8,1.438,1.438,0,0,1,.3.42,1.8,1.8,0,0,1-.547,1.026,1.225,1.225,0,0,1-.772.3.868.868,0,0,1-.877-.5,1.251,1.251,0,0,1-1.041.5,1.182,1.182,0,0,1-.832-.27.915.915,0,0,1-.293-.705,3.054,3.054,0,0,1,.037-.366q.172-1.395.263-2.218a1.279,1.279,0,0,1,.427-.083,2.068,2.068,0,0,1,.292.015.324.324,0,0,1,.187.113.4.4,0,0,1,.09.277l-.247,1.911a1.06,1.06,0,0,0-.015.165q0,.442.4.443a.729.729,0,0,0,.622-.368c0-.054,0-.142.015-.263l.247-1.993a.441.441,0,0,1,.225-.213.964.964,0,0,1,.431-.087A.766.766,0,0,1-2244.544,2431.815Z" transform="translate(2270.697 -2429.634)" fill="#5a6d9d"/>
      <path id="Path_86" data-name="Path 86" d="M-2240.441,2432.721q0-.329-.3-.329c-.2,0-.363.129-.483.389a1.82,1.82,0,0,1,.81,1.431,1.139,1.139,0,0,1-.323.876,1.142,1.142,0,0,1-.809.3.83.83,0,0,1-.712-.3,1.255,1.255,0,0,1-.225-.768c0-.095,0-.165.007-.21l.262-2.285a1.856,1.856,0,0,1,.547-.083c.3,0,.458.113.458.338v.015a.958.958,0,0,1,.764-.353.811.811,0,0,1,.524.154.5.5,0,0,1,.187.409.518.518,0,0,1-.191.416.742.742,0,0,1-.5.162h-.03A.837.837,0,0,0-2240.441,2432.721Zm-.914.584q-.136,1.081-.136,1.087c0,.21.085.314.255.314q.33,0,.329-.531A1.239,1.239,0,0,0-2241.355,2433.305Z" transform="translate(2269.261 -2429.634)" fill="#5a6d9d"/>
      <path id="Path_87" data-name="Path 87" d="M-2236.444,2433.291a.859.859,0,0,0,.229-.536.4.4,0,0,0-.138-.353.536.536,0,0,0-.3-.094.751.751,0,0,0-.618.394,1.633,1.633,0,0,0-.266.937,1.12,1.12,0,0,0,.259.81.855.855,0,0,0,.64.265,1.773,1.773,0,0,0,1.08-.389,2.92,2.92,0,0,0,.839-1.02,1.743,1.743,0,0,1,.3.39,3.166,3.166,0,0,1-.877,1.1,2.573,2.573,0,0,1-.745.427,2.441,2.441,0,0,1-.888.166,1.555,1.555,0,0,1-1.184-.457,1.774,1.774,0,0,1-.465-1.266,1.845,1.845,0,0,1,.581-1.349,1.907,1.907,0,0,1,1.39-.577,1.608,1.608,0,0,1,.937.251.811.811,0,0,1,.368.679,1.131,1.131,0,0,1-.461.936,2.831,2.831,0,0,1-1.263.5l-.1-.442A1.173,1.173,0,0,0-2236.444,2433.291Z" transform="translate(2268.228 -2429.634)" fill="#5a6d9d"/>
    </g>
  </g>
  <g id="Group_47" data-name="Group 47" transform="translate(28.459 53.503)">
    <path id="Path_88" data-name="Path 88" d="M-2262.443,2441.843a1.71,1.71,0,0,1-.341.107c-.158.046-.24.072-.242.075v-.481a3.1,3.1,0,0,0,.408-.179,1.052,1.052,0,0,0,.324-.235h.5v3.779h-.648Z" transform="translate(2263.026 -2441.087)" fill="#5a6d9d"/>
    <path id="Path_89" data-name="Path 89" d="M-2259.238,2444.7a1.041,1.041,0,0,1-.235-.717v-.056h.621a.806.806,0,0,0,.068.387.277.277,0,0,0,.263.117.258.258,0,0,0,.254-.176,1.757,1.757,0,0,0,.072-.6v-.448a.422.422,0,0,1-.2.173.779.779,0,0,1-.322.06q-.791,0-.792-1.11a1.584,1.584,0,0,1,.235-.927.853.853,0,0,1,.748-.333.865.865,0,0,1,.747.329,1.469,1.469,0,0,1,.243.888v1.339a1.809,1.809,0,0,1-.221.966.84.84,0,0,1-.769.35A.938.938,0,0,1-2259.238,2444.7Zm1.043-1.957v-.588a1.069,1.069,0,0,0-.072-.434.262.262,0,0,0-.26-.16.259.259,0,0,0-.258.171,1.3,1.3,0,0,0-.073.5,3.506,3.506,0,0,0,.017.4.435.435,0,0,0,.088.231.283.283,0,0,0,.231.088A.361.361,0,0,0-2258.2,2442.747Z" transform="translate(2262.095 -2441.072)" fill="#5a6d9d"/>
    <path id="Path_90" data-name="Path 90" d="M-2255.358,2444.677a1.451,1.451,0,0,1-.207-.852h.63a1.282,1.282,0,0,0,.071.485.27.27,0,0,0,.275.163.268.268,0,0,0,.228-.1.56.56,0,0,0,.1-.271,3.9,3.9,0,0,0,.021-.474,1.593,1.593,0,0,0-.07-.551.28.28,0,0,0-.29-.177.3.3,0,0,0-.221.089.52.52,0,0,0-.133.242h-.555l.038-2.1h1.7v.579h-1.157l-.037.909a.539.539,0,0,1,.229-.143.965.965,0,0,1,.326-.053.653.653,0,0,1,.595.306,1.6,1.6,0,0,1,.194.86,2.858,2.858,0,0,1-.081.733.879.879,0,0,1-.3.47.937.937,0,0,1-.607.174A.861.861,0,0,1-2255.358,2444.677Z" transform="translate(2261.051 -2441.087)" fill="#5a6d9d"/>
    <path id="Path_91" data-name="Path 91" d="M-2250.736,2441.625h-1.022v-.5h1.656v.392l-.764,3.387h-.625Z" transform="translate(2260.043 -2441.087)" fill="#5a6d9d"/>
  </g>
  <g id="Group_48" data-name="Group 48" transform="translate(0 0)">
    <path id="Path_92" data-name="Path 92" d="M-2238.975,2396.771v-10.325a3.717,3.717,0,0,0-1.73-2.98l-25.844-14.748h0a3.548,3.548,0,0,0-1.725-.413,3.546,3.546,0,0,0-1.728.414l-25.8,14.747a3.72,3.72,0,0,0-1.73,2.981v10.325h-4.2v14.2l4.2,3.755v1.834a3.722,3.722,0,0,0,1.73,2.979l25.845,14.748a3.533,3.533,0,0,0,1.725.412,3.522,3.522,0,0,0,1.726-.413l25.8-14.746a3.719,3.719,0,0,0,1.729-2.98v-1.7l4.352-3.889h.012v-14.2Zm-57.583-10.325a2.818,2.818,0,0,1,1.24-2.138l25.8-14.744a2.565,2.565,0,0,1,1.245-.288,2.59,2.59,0,0,1,1.243.286l25.844,14.748a2.815,2.815,0,0,1,1.242,2.137v10.325H-2242V2387.9a3.174,3.174,0,0,0-1.465-2.522l-23.35-13.325a2.988,2.988,0,0,0-1.46-.347,2.976,2.976,0,0,0-1.464.349l-23.308,13.323a3.183,3.183,0,0,0-1.465,2.523v8.873h-2.049Zm52.973,10.325-8.4-10.476-3.474,6.154,3.939-.693-3.3,5.015h-13.038l13.745-9.473-7.568-9.714-4.417,7.328,5.591-1.106-8.244,8.608,6.325-1.764-5.65,6.12h-10.317l13.947-16.853-9.542,9.609-1.175-1.608-2.813,3.759,3.147-.434-3.609,5.527h-6.29l7.37-7.555-6.412,4.648-2.247-1.174.657,4.081h-4.66l3.251-3.71-6.516,3.71h-.742V2387.9a2.727,2.727,0,0,1,1.22-2.1l23.309-13.322a2.519,2.519,0,0,1,1.223-.285,2.511,2.511,0,0,1,1.219.285l.122-.211-.121.211,23.351,13.323a2.725,2.725,0,0,1,1.22,2.1v8.873Zm-57.178.97h65.182V2410h-65.182Zm6.74,13.23h51.543v4.136a2.72,2.72,0,0,1-1.22,2.1l-23.309,13.324a2.56,2.56,0,0,1-1.221.282,2.554,2.554,0,0,1-1.221-.281l-23.35-13.327a2.719,2.719,0,0,1-1.221-2.1Zm52.837,7.725-25.8,14.747a2.611,2.611,0,0,1-1.244.285,2.613,2.613,0,0,1-1.244-.285l-25.844-14.748a2.814,2.814,0,0,1-1.241-2.136v-5.589h2.049v4.136a3.181,3.181,0,0,0,1.465,2.522l23.352,13.325a3.021,3.021,0,0,0,1.461.345,3.037,3.037,0,0,0,1.462-.345l23.308-13.323a3.179,3.179,0,0,0,1.465-2.523v-4.136h2.051v5.589A2.817,2.817,0,0,1-2241.186,2418.7Z" transform="translate(2301.732 -2368.305)" fill="#5a6d9d"/>
  </g>
</svg>
