<svg id="Group_30" data-name="Group 30" xmlns="http://www.w3.org/2000/svg" width="76.337" height="53.378" viewBox="0 0 76.337 53.378">
  <g id="Group_29" data-name="Group 29" transform="translate(0)">
    <g id="Group_20" data-name="Group 20" transform="translate(2.517 2.47)">
      <g id="Group_19" data-name="Group 19">
        <path id="Path_38" data-name="Path 38" d="M-2104.529,2428.953v-48.438h71.3v48.438Zm71.011-.291v0Zm-70.428-.291h70.136V2381.1h-70.136v47.274Z" transform="translate(2104.529 -2380.515)" fill="#5a6d9d"/>
      </g>
    </g>
    <g id="Group_21" data-name="Group 21" transform="translate(49.228 11.233)">
      <path id="Path_39" data-name="Path 39" d="M-2041,2392.464h1.023v2.548h-.488v-2.119H-2041Z" transform="translate(2041 -2392.442)" fill="#5a6d9d"/>
      <path id="Path_40" data-name="Path 40" d="M-2037.893,2394.583a1.022,1.022,0,0,0,.292.042.6.6,0,0,0,.513-.227.988.988,0,0,0,.164-.624.653.653,0,0,1-.269.251.865.865,0,0,1-.4.088.8.8,0,0,1-.594-.223.813.813,0,0,1-.219-.6.893.893,0,0,1,.112-.455.755.755,0,0,1,.315-.3,1.02,1.02,0,0,1,.477-.106,1.021,1.021,0,0,1,.559.149.965.965,0,0,1,.36.43,1.615,1.615,0,0,1,.126.665,1.737,1.737,0,0,1-.137.71,1.074,1.074,0,0,1-.387.471,1.038,1.038,0,0,1-.587.166,1.575,1.575,0,0,1-.4-.054,1.515,1.515,0,0,1-.369-.145l.189-.361A.879.879,0,0,0-2037.893,2394.583Zm.066-1.617a.425.425,0,0,0-.131.331.414.414,0,0,0,.124.321.472.472,0,0,0,.338.116.508.508,0,0,0,.368-.13.411.411,0,0,0,.13-.321.416.416,0,0,0-.121-.306.477.477,0,0,0-.362-.131A.491.491,0,0,0-2037.827,2392.966Z" transform="translate(2040.313 -2392.434)" fill="#5a6d9d"/>
      <path id="Path_41" data-name="Path 41" d="M-2033.166,2392.615a.588.588,0,0,1,.231.49.553.553,0,0,1-.095.315.632.632,0,0,1-.262.223.769.769,0,0,1,.354.255.638.638,0,0,1,.13.393.646.646,0,0,1-.121.389.748.748,0,0,1-.344.257,1.4,1.4,0,0,1-.523.089,1.4,1.4,0,0,1-.522-.089.756.756,0,0,1-.344-.253.632.632,0,0,1-.12-.386.629.629,0,0,1,.135-.4.788.788,0,0,1,.371-.258.722.722,0,0,1-.279-.232.565.565,0,0,1-.1-.325.566.566,0,0,1,.232-.475,1,1,0,0,1,.624-.177A1.006,1.006,0,0,1-2033.166,2392.615Zm-1.018,1.341a.338.338,0,0,0-.139.288.352.352,0,0,0,.139.295.628.628,0,0,0,.389.106.637.637,0,0,0,.387-.1.345.345,0,0,0,.141-.294.341.341,0,0,0-.141-.289.648.648,0,0,0-.391-.1A.637.637,0,0,0-2034.184,2393.956Zm.06-1.082a.3.3,0,0,0-.118.255.3.3,0,0,0,.118.255.53.53,0,0,0,.329.09.524.524,0,0,0,.328-.09.307.307,0,0,0,.117-.255.3.3,0,0,0-.117-.255.524.524,0,0,0-.328-.091A.53.53,0,0,0-2034.124,2392.875Z" transform="translate(2039.354 -2392.434)" fill="#5a6d9d"/>
      <path id="Path_42" data-name="Path 42" d="M-2031.331,2392.464h1.966v.364l-1.048,2.184h-.517l1.015-2.123h-.979l0,.36h-.434Z" transform="translate(2038.44 -2392.442)" fill="#5a6d9d"/>
    </g>
    <g id="Group_22" data-name="Group 22" transform="translate(17.887 11.215)">
      <path id="Path_43" data-name="Path 43" d="M-2083.626,2392.464h1.868v.426h-1.38v.629h1.237v.426h-1.237v.642h1.423v.426h-1.912Z" transform="translate(2083.626 -2392.424)" fill="#5a6d9d"/>
      <path id="Path_44" data-name="Path 44" d="M-2078.74,2392.919a1.209,1.209,0,0,0-.362-.066.5.5,0,0,0-.277.066.2.2,0,0,0-.1.182.239.239,0,0,0,.071.176.553.553,0,0,0,.177.116,2.859,2.859,0,0,0,.293.1,3.125,3.125,0,0,1,.425.153.753.753,0,0,1,.282.225.623.623,0,0,1,.117.394.669.669,0,0,1-.126.405.784.784,0,0,1-.346.265,1.317,1.317,0,0,1-.5.091,1.586,1.586,0,0,1-.583-.111,1.641,1.641,0,0,1-.494-.3l.2-.415a1.49,1.49,0,0,0,.434.28,1.145,1.145,0,0,0,.448.1.571.571,0,0,0,.321-.078.246.246,0,0,0,.116-.212.247.247,0,0,0-.071-.182.535.535,0,0,0-.18-.114,2.9,2.9,0,0,0-.3-.1,3.427,3.427,0,0,1-.422-.15.736.736,0,0,1-.28-.219.61.61,0,0,1-.116-.388.648.648,0,0,1,.118-.388.761.761,0,0,1,.335-.257,1.288,1.288,0,0,1,.5-.091,1.664,1.664,0,0,1,.49.074,1.675,1.675,0,0,1,.431.2l-.2.427A1.852,1.852,0,0,0-2078.74,2392.919Z" transform="translate(2082.711 -2392.409)" fill="#5a6d9d"/>
      <path id="Path_45" data-name="Path 45" d="M-2076.64,2392.464h2.078v.433h-.793v2.115h-.491V2392.9h-.794Z" transform="translate(2081.776 -2392.424)" fill="#5a6d9d"/>
      <path id="Path_46" data-name="Path 46" d="M-2072.905,2395.334a.255.255,0,0,1,.071.186.266.266,0,0,1-.071.191.242.242,0,0,1-.18.075.232.232,0,0,1-.176-.077.269.269,0,0,1-.071-.189.257.257,0,0,1,.071-.186.237.237,0,0,1,.176-.072A.241.241,0,0,1-2072.905,2395.334Z" transform="translate(2080.901 -2393.164)" fill="#5a6d9d"/>
    </g>
    <g id="Group_23" data-name="Group 23" transform="translate(21.777 36.56)">
      <path id="Path_47" data-name="Path 47" d="M-2075.906,2434.358a1.56,1.56,0,0,1-1.121.462,1.324,1.324,0,0,1-.976-.332,1.154,1.154,0,0,1-.332-.852q0-1.223,1.858-2.085.052-.437.15-1.178t.156-1.2q.057-.456.078-.6a1.8,1.8,0,0,1,.986-.269,2.331,2.331,0,0,1,.5.052l-.654,4.431A2.717,2.717,0,0,1-2075.906,2434.358Zm-2.325-5.195a1.964,1.964,0,0,1,.872-1.634,3.763,3.763,0,0,1,2.3-.649,5.629,5.629,0,0,1,1.359.151,3.215,3.215,0,0,1,.955.379,2.445,2.445,0,0,1,.592.53,1.841,1.841,0,0,1,.389,1.158,1.589,1.589,0,0,1-.5,1.136,1.717,1.717,0,0,1-1.2.518,2.694,2.694,0,0,1,1.531.581,1.607,1.607,0,0,1,.648,1.308,1.89,1.89,0,0,1-.8,1.619,3.225,3.225,0,0,1-1.946.581,2.848,2.848,0,0,1-1.562-.3l.323-.872a2.263,2.263,0,0,0,1.063.238,1.4,1.4,0,0,0,.99-.357,1.237,1.237,0,0,0,.385-.95,1.218,1.218,0,0,0-.524-1,2.276,2.276,0,0,0-1.427-.405l.094-.768a1.814,1.814,0,0,0,1.053-.3,1.039,1.039,0,0,0,.446-.886,1.163,1.163,0,0,0-.534-1,2.725,2.725,0,0,0-1.62-.426,2.744,2.744,0,0,0-1.318.348,1.043,1.043,0,0,0-.643.928.594.594,0,0,0,.229.473,1.1,1.1,0,0,0,.6.234l-.114.767a1.771,1.771,0,0,1-1.215-.446A1.308,1.308,0,0,1-2078.231,2429.163Zm.664,4.338c0,.25.118.374.354.374a.431.431,0,0,0,.306-.192,1.239,1.239,0,0,0,.223-.607l.094-.643Q-2077.567,2432.983-2077.567,2433.5Z" transform="translate(2078.335 -2426.88)" fill="#5a6d9d"/>
      <path id="Path_48" data-name="Path 48" d="M-2063.735,2435.875a1.254,1.254,0,0,1-1.266-.664,1.7,1.7,0,0,1-1.385.675,1.942,1.942,0,0,1-1.422-.571,2.026,2.026,0,0,1-.576-1.505,2.945,2.945,0,0,1,.8-2.168,2.72,2.72,0,0,1,2.024-.81h.063a2.52,2.52,0,0,1,.954.177,1.249,1.249,0,0,1,.679-.177,1.193,1.193,0,0,1,.576.1q-.092.769-.2,1.51t-.146,1.053a8.949,8.949,0,0,0-.093,1.018c0,.277.109.416.332.416a.783.783,0,0,0,.55-.348,3.1,3.1,0,0,0,.508-1.1,1.433,1.433,0,0,1,.416.6,2.727,2.727,0,0,1-.809,1.385A1.629,1.629,0,0,1-2063.735,2435.875Zm-1.671-4.233a1.262,1.262,0,0,0-1.053.5,2.766,2.766,0,0,0-.462,1.5,1.509,1.509,0,0,0-.01.176,1.251,1.251,0,0,0,.243.81.77.77,0,0,0,.629.3q.654,0,.985-.924l.249-2.242A1.531,1.531,0,0,0-2065.406,2431.642Z" transform="translate(2075.7 -2427.926)" fill="#5a6d9d"/>
      <path id="Path_49" data-name="Path 49" d="M-2057.464,2432.192c0-.3-.14-.457-.42-.457s-.5.18-.669.54a2.516,2.516,0,0,1,1.121,1.981,1.578,1.578,0,0,1-.446,1.214,1.582,1.582,0,0,1-1.121.415,1.142,1.142,0,0,1-.985-.42,1.734,1.734,0,0,1-.311-1.064c0-.132,0-.229.01-.291l.363-3.165a2.567,2.567,0,0,1,.758-.115q.632,0,.632.467v.021a1.328,1.328,0,0,1,1.059-.488,1.123,1.123,0,0,1,.727.213.7.7,0,0,1,.259.566.717.717,0,0,1-.265.576,1.032,1.032,0,0,1-.69.223h-.041A1.191,1.191,0,0,0-2057.464,2432.192Zm-1.266.809q-.186,1.495-.186,1.5c0,.292.117.437.352.437q.457,0,.457-.737A1.712,1.712,0,0,0-2058.73,2433Z" transform="translate(2073.559 -2427.926)" fill="#5a6d9d"/>
      <path id="Path_50" data-name="Path 50" d="M-2051.648,2432.192c0-.3-.14-.457-.421-.457s-.5.18-.669.54a2.512,2.512,0,0,1,1.121,1.981,1.575,1.575,0,0,1-.447,1.214,1.577,1.577,0,0,1-1.12.415,1.145,1.145,0,0,1-.987-.42,1.743,1.743,0,0,1-.311-1.064c0-.132,0-.229.01-.291l.363-3.165a2.573,2.573,0,0,1,.757-.115q.633,0,.633.467v.021a1.329,1.329,0,0,1,1.059-.488,1.116,1.116,0,0,1,.726.213.693.693,0,0,1,.26.566.715.715,0,0,1-.265.576,1.034,1.034,0,0,1-.69.223h-.041A1.216,1.216,0,0,0-2051.648,2432.192Zm-1.267.809q-.187,1.495-.187,1.5c0,.292.118.437.353.437.305,0,.457-.246.457-.737A1.711,1.711,0,0,0-2052.915,2433Z" transform="translate(2072.02 -2427.926)" fill="#5a6d9d"/>
      <path id="Path_51" data-name="Path 51" d="M-2046.307,2430.832a2.208,2.208,0,0,1,1.593.613,2,2,0,0,1,.638,1.494,2.937,2.937,0,0,1-.783,2.143,2.544,2.544,0,0,1-1.894.8,2.412,2.412,0,0,1-1.76-.633,2.1,2.1,0,0,1-.648-1.567,2.743,2.743,0,0,1,.8-2.076A2.844,2.844,0,0,1-2046.307,2430.832Zm-.2.841a.96.96,0,0,0-.826.559,2.946,2.946,0,0,0-.363,1.412,1.866,1.866,0,0,0,.244,1,.811.811,0,0,0,.742.4.977.977,0,0,0,.835-.55,2.355,2.355,0,0,0,.338-1.256,2.244,2.244,0,0,0-.239-1.121A.782.782,0,0,0-2046.509,2431.673Z" transform="translate(2070.611 -2427.926)" fill="#5a6d9d"/>
      <path id="Path_52" data-name="Path 52" d="M-2038.711,2434.658l.249-2.314a.741.741,0,0,0-.145-.467.574.574,0,0,0-.483-.187.7.7,0,0,0-.571.3,1.52,1.52,0,0,0-.295.743q-.374,2.843-.395,3.092h-1.4l.571-4.888a2.841,2.841,0,0,1,.664-.114q.7,0,.727.509a1.681,1.681,0,0,1,1.219-.5,1.636,1.636,0,0,1,1.115.354,1.13,1.13,0,0,1,.405.891,4.335,4.335,0,0,1-.062.55q-.239,1.578-.239,1.837,0,.478.321.478.707,0,1.069-1.474a1.878,1.878,0,0,1,.426.591q-.55,1.826-1.91,1.826a1.142,1.142,0,0,1-.954-.394A1.322,1.322,0,0,1-2038.711,2434.658Z" transform="translate(2068.65 -2427.923)" fill="#5a6d9d"/>
    </g>
    <g id="Group_24" data-name="Group 24" transform="translate(7.17 20.603)">
      <path id="Path_53" data-name="Path 53" d="M-2088.867,2406.739a4.657,4.657,0,0,1,1.495,3.737,5.144,5.144,0,0,1-.733,2.765,4.852,4.852,0,0,1-2.112,1.837,7.607,7.607,0,0,1-3.281.654l-.9-.015q-.872-.03-1.277-.029-1.7,0-2.526.044v-.291a2.283,2.283,0,0,0,.675-.116.485.485,0,0,0,.283-.334,3.109,3.109,0,0,0,.073-.8v-7.2a2.827,2.827,0,0,0-.081-.8.51.51,0,0,0-.282-.334,2.226,2.226,0,0,0-.668-.115v-.291q.668.043,1.975.043h.522l.639-.015q1.219-.029,1.7-.029A6.759,6.759,0,0,1-2088.867,2406.739Zm-4.957-.922a.573.573,0,0,0-.312.363,2.615,2.615,0,0,0-.088.785v7.257a2.613,2.613,0,0,0,.088.784.568.568,0,0,0,.312.363,1.774,1.774,0,0,0,.689.1,2.165,2.165,0,0,0,2.075-1.24,8.346,8.346,0,0,0,.639-3.7,7.722,7.722,0,0,0-.66-3.636,2.207,2.207,0,0,0-2.069-1.183A1.719,1.719,0,0,0-2093.824,2405.816Z" transform="translate(2098.201 -2405.251)" fill="#5a6d9d"/>
      <path id="Path_54" data-name="Path 54" d="M-2073.84,2415.2a.709.709,0,0,0,.443.239v.291q-1.046-.044-2.642-.044-1.655,0-2.438.044v-.291a2.292,2.292,0,0,0,.782-.137.39.39,0,0,0,.233-.385,2.008,2.008,0,0,0-.174-.7l-.857-2.38h-2.931l-.247.653a5.745,5.745,0,0,0-.479,1.887.9.9,0,0,0,.334.812,1.985,1.985,0,0,0,.987.247v.291q-1.088-.044-1.9-.044-.683,0-1.118.044v-.291a1.137,1.137,0,0,0,.682-.45,4.842,4.842,0,0,0,.653-1.248l3.223-8.289c.309.019.566.029.768.029s.446-.01.755-.029l3.514,9.058A2.08,2.08,0,0,0-2073.84,2415.2Zm-4.754-3.651-1.321-3.629-1.394,3.629Z" transform="translate(2094.401 -2405.251)" fill="#5a6d9d"/>
      <path id="Path_55" data-name="Path 55" d="M-2059.337,2415.085a1.9,1.9,0,0,0,.493.355v.291q-1.22-.044-2.612-.044-1.075,0-2.076.044v-.291a3.542,3.542,0,0,0,.646-.08c.121-.034.182-.1.182-.2a.78.78,0,0,0-.146-.377l-2.105-3.556a2.2,2.2,0,0,0-.341-.479.6.6,0,0,0-.341-.16v3.6a2.851,2.851,0,0,0,.08.8.509.509,0,0,0,.284.334,2.184,2.184,0,0,0,.667.116v.291q-.842-.044-2.424-.044-1.757,0-2.584.044v-.291a2.279,2.279,0,0,0,.675-.116.486.486,0,0,0,.284-.334,3.136,3.136,0,0,0,.073-.8v-7.2a2.8,2.8,0,0,0-.081-.8.511.511,0,0,0-.283-.334,2.209,2.209,0,0,0-.667-.115v-.291q.828.043,2.584.043,1.567,0,2.424-.043v.291a2.3,2.3,0,0,0-.675.115.487.487,0,0,0-.284.334,3.15,3.15,0,0,0-.073.8v3.28a2.224,2.224,0,0,0,1.132-.435,8.716,8.716,0,0,0,1.35-1.292l.494-.552a2.1,2.1,0,0,0,.638-1.306.806.806,0,0,0-.334-.675,1.517,1.517,0,0,0-.856-.283v-.276q1.219.043,2.453.043.885,0,1.466-.043v.276a4.907,4.907,0,0,0-2.381,1.6l-1.423,1.611,3.368,5.618A3.021,3.021,0,0,0-2059.337,2415.085Z" transform="translate(2090.633 -2405.251)" fill="#5a6d9d"/>
      <path id="Path_56" data-name="Path 56" d="M-2046.9,2405.8a4.525,4.525,0,0,1,1.916,1.807,5.562,5.562,0,0,1,.682,2.823,5.656,5.656,0,0,1-.7,2.831,4.871,4.871,0,0,1-1.946,1.915,5.835,5.835,0,0,1-2.845.682,6.3,6.3,0,0,1-2.874-.624,4.522,4.522,0,0,1-1.916-1.808,5.559,5.559,0,0,1-.682-2.823,5.661,5.661,0,0,1,.7-2.83,4.885,4.885,0,0,1,1.946-1.916,5.831,5.831,0,0,1,2.845-.682A6.3,6.3,0,0,1-2046.9,2405.8Zm-4.187.283a4.443,4.443,0,0,0-.834,1.807,10.961,10.961,0,0,0-.291,2.657,9.558,9.558,0,0,0,.334,2.656,4.46,4.46,0,0,0,.9,1.771,1.666,1.666,0,0,0,1.248.624,1.608,1.608,0,0,0,1.256-.646,4.45,4.45,0,0,0,.834-1.807,10.97,10.97,0,0,0,.291-2.657,9.547,9.547,0,0,0-.334-2.655,4.447,4.447,0,0,0-.9-1.771,1.664,1.664,0,0,0-1.248-.625A1.61,1.61,0,0,0-2051.089,2406.084Z" transform="translate(2086.833 -2405.178)" fill="#5a6d9d"/>
      <path id="Path_57" data-name="Path 57" d="M-2029.815,2408.328a9.776,9.776,0,0,0,.043,1.045h-.333a6.555,6.555,0,0,0-1.234-2.744,2.182,2.182,0,0,0-1.626-.842h-.015v8.3a2.305,2.305,0,0,0,.124.885.664.664,0,0,0,.451.371,4.071,4.071,0,0,0,1.037.094v.291q-2.047-.044-3.179-.044-1.03,0-2.99.044v-.291a4.089,4.089,0,0,0,1.038-.094.664.664,0,0,0,.45-.371,2.32,2.32,0,0,0,.123-.885v-8.3h-.015a2.18,2.18,0,0,0-1.632.834,6.567,6.567,0,0,0-1.226,2.751h-.334a9.738,9.738,0,0,0,.043-1.045q0-1.262-.1-2.874,1.379.043,4.746.043t4.733-.043Q-2029.815,2407.065-2029.815,2408.328Z" transform="translate(2082.579 -2405.251)" fill="#5a6d9d"/>
      <path id="Path_58" data-name="Path 58" d="M-2017.536,2415.2a.709.709,0,0,0,.442.239v.291q-1.044-.044-2.641-.044-1.655,0-2.439.044v-.291a2.305,2.305,0,0,0,.784-.137.39.39,0,0,0,.232-.385,2.026,2.026,0,0,0-.174-.7l-.857-2.38h-2.932l-.246.653a5.766,5.766,0,0,0-.479,1.887.9.9,0,0,0,.334.812,1.984,1.984,0,0,0,.987.247v.291q-1.089-.044-1.9-.044-.683,0-1.118.044v-.291a1.135,1.135,0,0,0,.682-.45,4.817,4.817,0,0,0,.653-1.248l3.223-8.289c.31.019.566.029.77.029s.445-.01.754-.029l3.513,9.058A2.088,2.088,0,0,0-2017.536,2415.2Zm-4.754-3.651-1.321-3.629-1.393,3.629Z" transform="translate(2079.495 -2405.251)" fill="#5a6d9d"/>
    </g>
    <g id="Group_26" data-name="Group 26">
      <g id="Group_25" data-name="Group 25">
        <path id="Path_59" data-name="Path 59" d="M-2101.523,2430.534v-4.288h-2.143V2424.1h-4.287v-40.516l4.287,0v-2.143h2.143v-4.286h63.477v4.286h2.145v2.145h4.286V2424.1h-4.286v2.144h-2.144v4.288Zm-5.849-7.012h4.287v2.143h2.144v4.287h62.315v-4.287h2.143v-2.143h4.287v-39.355h-3.995v-.291h0v.291h-.292v-2.143h-2.143v-4.286h-62.314v4.286h-2.144v2.143h-4.287v39.355Z" transform="translate(2107.953 -2377.156)" fill="#5a6d9d"/>
      </g>
    </g>
    <g id="Group_28" data-name="Group 28" transform="translate(32.467 6.653)">
      <g id="Group_27" data-name="Group 27">
        <path id="Path_60" data-name="Path 60" d="M-2052.393,2392.192v-.572h-1.487a4.21,4.21,0,0,0-1.031-2.494l.692-.691-.4-.4-.693.689a4.207,4.207,0,0,0-2.492-1.031v-1.485h-.573v1.485a4.212,4.212,0,0,0-2.493,1.031l-.691-.69-.405.4.691.693a4.2,4.2,0,0,0-1.03,2.492h-1.487v.573h1.487a4.2,4.2,0,0,0,1.031,2.493l-.692.693.405.4.691-.69a4.214,4.214,0,0,0,2.493,1.032v1.487h.573v-1.487a4.209,4.209,0,0,0,2.492-1.032l.693.69.4-.4-.692-.691a4.207,4.207,0,0,0,1.031-2.493Zm-2.057-.572h-2.088a1.6,1.6,0,0,0-.254-.613l1.475-1.475A3.649,3.649,0,0,1-2054.45,2391.62Zm-3.644,1.3a1.014,1.014,0,0,1-1.013-1.013,1.014,1.014,0,0,1,1.013-1.012,1.013,1.013,0,0,1,1.012,1.012A1.013,1.013,0,0,1-2058.094,2392.919Zm2.372-3.791-1.473,1.474a1.592,1.592,0,0,0-.613-.252v-2.087A3.64,3.64,0,0,1-2055.722,2389.128Zm-2.658-.865v2.087a1.584,1.584,0,0,0-.613.252l-1.475-1.474A3.657,3.657,0,0,1-2058.381,2388.263Zm-2.491,1.269,1.473,1.474a1.6,1.6,0,0,0-.252.613h-2.087A3.641,3.641,0,0,1-2060.872,2389.532Zm-.865,2.66h2.087a1.589,1.589,0,0,0,.252.613l-1.473,1.474A3.631,3.631,0,0,1-2061.737,2392.192Zm1.27,2.491,1.474-1.474a1.572,1.572,0,0,0,.613.253v2.086A3.644,3.644,0,0,1-2060.468,2394.683Zm2.659.865v-2.086a1.569,1.569,0,0,0,.612-.252l1.474,1.474A3.637,3.637,0,0,1-2057.808,2395.548Zm2.492-1.27-1.475-1.474a1.6,1.6,0,0,0,.254-.613h2.088A3.637,3.637,0,0,1-2055.316,2394.278Z" transform="translate(2063.796 -2386.205)" fill="#5a6d9d"/>
      </g>
    </g>
  </g>
</svg>
