<svg xmlns="http://www.w3.org/2000/svg" width="71.433" height="64.158" viewBox="0 0 71.433 64.158">
  <g id="Group_65" data-name="Group 65" transform="translate(0)">
    <g id="Group_64" data-name="Group 64" transform="translate(0)">
      <g id="Group_59" data-name="Group 59" transform="translate(0 35.334)">
        <g id="Group_58" data-name="Group 58">
          <path id="Path_118" data-name="Path 118" d="M-1904.572,2418.109h2.414l1.987,10.637,1.874-10.637h2.47l-3.026,15.037h-2.693Z" transform="translate(1904.572 -2417.942)" fill="#5a6d9d"/>
          <path id="Path_119" data-name="Path 119" d="M-1887.958,2418.109h2.711v15.037h-2.711Z" transform="translate(1900.174 -2417.942)" fill="#5a6d9d"/>
          <path id="Path_120" data-name="Path 120" d="M-1878.59,2418.109h1.912l3.657,8.576v-8.576h2.265v15.037h-1.82l-3.676-8.985v8.985h-2.338Z" transform="translate(1897.694 -2417.942)" fill="#5a6d9d"/>
          <path id="Path_121" data-name="Path 121" d="M-1861.213,2420.132h-2.506v-2.023h7.7v2.023h-2.469v13.014h-2.729Z" transform="translate(1893.757 -2417.942)" fill="#5a6d9d"/>
          <path id="Path_122" data-name="Path 122" d="M-1847.2,2418.109h2.934l3.006,15.037h-2.543l-.593-3.471h-2.618l-.613,3.471h-2.58Zm2.506,9.821-1.021-6.312-1.021,6.312Z" transform="translate(1890.181 -2417.942)" fill="#5a6d9d"/>
          <path id="Path_123" data-name="Path 123" d="M-1832.913,2431.963a6.6,6.6,0,0,1-.937-3.833v-5.05a6.512,6.512,0,0,1,.965-3.889,3.862,3.862,0,0,1,3.323-1.309,4.051,4.051,0,0,1,3.193,1.1,4.859,4.859,0,0,1,.965,3.276v.779h-2.617v-.854a6.5,6.5,0,0,0-.1-1.3,1.243,1.243,0,0,0-.426-.742,1.539,1.539,0,0,0-.975-.261,1.387,1.387,0,0,0-1.021.335,1.605,1.605,0,0,0-.436.854,7.25,7.25,0,0,0-.1,1.355v6.293a4.136,4.136,0,0,0,.343,1.912,1.334,1.334,0,0,0,1.29.631,1.339,1.339,0,0,0,1.29-.668,4.343,4.343,0,0,0,.362-2.005v-1.411h-1.615v-1.726h4.085v7.629h-1.783l-.185-1.466a2.548,2.548,0,0,1-2.544,1.67A3.5,3.5,0,0,1-1832.913,2431.963Z" transform="translate(1885.849 -2417.882)" fill="#5a6d9d"/>
          <path id="Path_124" data-name="Path 124" d="M-1816.883,2418.109h6.312v1.931h-3.583v4.325h2.822v1.913h-2.822v4.993h3.62v1.875h-6.349Z" transform="translate(1881.357 -2417.942)" fill="#5a6d9d"/>
        </g>
      </g>
      <g id="Group_61" data-name="Group 61" transform="translate(12.946 54.842)">
        <g id="Group_60" data-name="Group 60">
          <path id="Path_125" data-name="Path 125" d="M-1886.3,2453.034a3.269,3.269,0,0,1-.667-2.076l1.425-.281a3.12,3.12,0,0,0,.275,1.318.8.8,0,0,0,.757.455.685.685,0,0,0,.567-.23.966.966,0,0,0,.185-.623,1.63,1.63,0,0,0-.241-.91,4.427,4.427,0,0,0-.758-.832l-1.144-1a3.524,3.524,0,0,1-.791-.97,2.6,2.6,0,0,1-.265-1.229,2.157,2.157,0,0,1,.629-1.662,2.466,2.466,0,0,1,1.74-.583,1.965,1.965,0,0,1,1.673.668,3.317,3.317,0,0,1,.584,1.8l-1.426.246a3.339,3.339,0,0,0-.2-1.111.623.623,0,0,0-.635-.381.78.78,0,0,0-.6.235.872.872,0,0,0-.219.618,1.368,1.368,0,0,0,.18.729,3.136,3.136,0,0,0,.56.64l1.135,1a4.966,4.966,0,0,1,1,1.19,2.825,2.825,0,0,1,.359,1.448,2.3,2.3,0,0,1-.285,1.156,2.047,2.047,0,0,1-.8.791,2.408,2.408,0,0,1-1.19.287A2.326,2.326,0,0,1-1886.3,2453.034Z" transform="translate(1886.964 -2444.414)" fill="#5a6d9d"/>
          <path id="Path_126" data-name="Path 126" d="M-1872.353,2445.775h-1.515v-1.224h4.658v1.224h-1.493v7.868h-1.65Z" transform="translate(1883.497 -2444.45)" fill="#5a6d9d"/>
          <path id="Path_127" data-name="Path 127" d="M-1859.373,2450.174l-1.84-5.623h1.548l1.123,3.6,1.055-3.6h1.515l-1.818,5.623v3.468h-1.583Z" transform="translate(1880.147 -2444.45)" fill="#5a6d9d"/>
          <path id="Path_128" data-name="Path 128" d="M-1846.894,2444.551h1.65v7.958h2.211v1.133h-3.861Z" transform="translate(1876.356 -2444.45)" fill="#5a6d9d"/>
          <path id="Path_129" data-name="Path 129" d="M-1834.362,2444.551h3.816v1.167h-2.167v2.615h1.707v1.156h-1.707v3.02h2.189v1.133h-3.838Z" transform="translate(1873.038 -2444.45)" fill="#5a6d9d"/>
        </g>
      </g>
      <g id="Group_63" data-name="Group 63" transform="translate(0.246)">
        <g id="Group_62" data-name="Group 62">
          <path id="Path_130" data-name="Path 130" d="M-1833.89,2373.307c-.065-.074-2.685-3.062-11.137-2.9-.046,0-.092,0-.137-.007a29.2,29.2,0,0,0-5.859-.576,24.106,24.106,0,0,0-10.917,2.307l-.064.023a50.462,50.462,0,0,1-6.642.624,50.475,50.475,0,0,1-6.641-.624l-.064-.023a24.1,24.1,0,0,0-10.916-2.307,29.2,29.2,0,0,0-5.859.576c-.046,0-.09.005-.137.007-8.451-.162-11.072,2.825-11.136,2.9a1.617,1.617,0,0,0-.84,1.29c0,.632.527,1.2,1.35,1.568v.006a4.08,4.08,0,0,1,1.957,3.014v.005a30.819,30.819,0,0,0,1.951,9.5l.319.55c1.682,3.709,6.239,6.37,11.6,6.37a13.99,13.99,0,0,0,9.294-3.293c1.413-.851,4.842-3.862,5.848-10.677h0c.3-2.282,1.571-4.018,3.116-4.134.03,0,.06,0,.089,0l.067,0,.068,0c.029,0,.059,0,.089,0,1.546.116,2.815,1.852,3.116,4.134h0c1.005,6.814,4.434,9.825,5.849,10.677a13.983,13.983,0,0,0,9.292,3.293c5.361,0,9.919-2.661,11.6-6.37l.319-.55a30.845,30.845,0,0,0,1.951-9.5v-.005a4.082,4.082,0,0,1,1.958-3.014v-.006c.823-.372,1.351-.936,1.351-1.568A1.619,1.619,0,0,0-1833.89,2373.307Zm-39.6,4.658c.055,8.83-3.889,12.468-5.355,13.374a12.018,12.018,0,0,1-8.12,2.958c-4.684,0-8.667-2.39-10.136-5.721l-.28-.494a29.633,29.633,0,0,1-1.748-11.046l.317-.874.01-.007c1.1-2.857,6.293-5.02,12.53-5.02,7.039,0,12.746,2.756,12.746,6.155A5.806,5.806,0,0,1-1873.489,2377.965Zm33.579,10.117-.279.494c-1.47,3.331-5.452,5.721-10.137,5.721a12.02,12.02,0,0,1-8.12-2.958c-1.465-.906-5.409-4.544-5.355-13.374a6.15,6.15,0,0,1,.037-.675c0-3.4,5.708-6.155,12.746-6.155,6.236,0,11.426,2.163,12.53,5.02l.012.007.315.874A29.617,29.617,0,0,1-1839.909,2388.082Z" transform="translate(1904.237 -2369.825)" fill="#5a6d9d"/>
        </g>
      </g>
    </g>
  </g>
</svg>
