<svg id="Group_43" data-name="Group 43" xmlns="http://www.w3.org/2000/svg" width="75.544" height="76.538" viewBox="0 0 75.544 76.538">
  <g id="Group_42" data-name="Group 42" transform="translate(0)">
    <g id="Group_31" data-name="Group 31" transform="translate(30.585 49.978)">
      <path id="Path_61" data-name="Path 61" d="M-1664.9,2430.466a2.287,2.287,0,0,1-.48.151c-.223.066-.338.1-.341.105v-.676a4.638,4.638,0,0,0,.575-.253,1.49,1.49,0,0,0,.457-.333h.7v5.324h-.914Z" transform="translate(1665.724 -2429.401)" fill="#5a6d9d"/>
      <path id="Path_62" data-name="Path 62" d="M-1660.386,2434.5a1.465,1.465,0,0,1-.332-1.01v-.079h.875a1.157,1.157,0,0,0,.095.546.391.391,0,0,0,.371.164.36.36,0,0,0,.358-.246,2.46,2.46,0,0,0,.1-.852v-.631a.587.587,0,0,1-.282.243,1.085,1.085,0,0,1-.453.086q-1.117,0-1.118-1.565a2.235,2.235,0,0,1,.331-1.3,1.205,1.205,0,0,1,1.056-.471,1.219,1.219,0,0,1,1.051.463,2.06,2.06,0,0,1,.343,1.252v1.887a2.522,2.522,0,0,1-.313,1.36,1.179,1.179,0,0,1-1.081.493A1.319,1.319,0,0,1-1660.386,2434.5Zm1.468-2.757v-.829a1.49,1.49,0,0,0-.1-.611.368.368,0,0,0-.365-.225.367.367,0,0,0-.365.241,1.867,1.867,0,0,0-.1.7,5.216,5.216,0,0,0,.023.563.624.624,0,0,0,.125.326.4.4,0,0,0,.326.124A.506.506,0,0,0-1658.918,2431.74Z" transform="translate(1664.413 -2429.38)" fill="#5a6d9d"/>
      <path id="Path_63" data-name="Path 63" d="M-1654.918,2434.46a2.042,2.042,0,0,1-.292-1.2h.887a1.8,1.8,0,0,0,.1.683.381.381,0,0,0,.388.23.37.37,0,0,0,.321-.141.779.779,0,0,0,.135-.381,5.765,5.765,0,0,0,.03-.667,2.244,2.244,0,0,0-.1-.776.394.394,0,0,0-.408-.25.43.43,0,0,0-.311.125.728.728,0,0,0-.187.342h-.782l.052-2.965h2.393v.815h-1.63l-.052,1.282a.765.765,0,0,1,.322-.2,1.361,1.361,0,0,1,.461-.074.921.921,0,0,1,.837.429,2.256,2.256,0,0,1,.273,1.213,3.95,3.95,0,0,1-.115,1.032,1.239,1.239,0,0,1-.418.663,1.328,1.328,0,0,1-.854.243A1.213,1.213,0,0,1-1654.918,2434.46Z" transform="translate(1662.941 -2429.401)" fill="#5a6d9d"/>
      <path id="Path_64" data-name="Path 64" d="M-1648.407,2430.157h-1.439v-.7h2.334v.552l-1.079,4.772h-.88Z" transform="translate(1661.521 -2429.401)" fill="#5a6d9d"/>
    </g>
    <g id="Group_32" data-name="Group 32" transform="translate(23.241 31.443)">
      <path id="Path_65" data-name="Path 65" d="M-1674.93,2415.915a5.511,5.511,0,0,1-.782-3.2V2408.5a5.438,5.438,0,0,1,.8-3.244,3.223,3.223,0,0,1,2.772-1.091,3.377,3.377,0,0,1,2.663.921,4.048,4.048,0,0,1,.806,2.733v.649h-2.184v-.712a5.542,5.542,0,0,0-.084-1.084,1.045,1.045,0,0,0-.357-.62,1.284,1.284,0,0,0-.812-.217,1.16,1.16,0,0,0-.852.279,1.36,1.36,0,0,0-.365.713,6.111,6.111,0,0,0-.084,1.13v5.25a3.457,3.457,0,0,0,.286,1.594,1.114,1.114,0,0,0,1.077.526,1.115,1.115,0,0,0,1.075-.557,3.625,3.625,0,0,0,.3-1.673v-1.177h-1.348v-1.44h3.407v6.364h-1.487l-.156-1.223a2.122,2.122,0,0,1-2.121,1.393A2.917,2.917,0,0,1-1674.93,2415.915Z" transform="translate(1675.712 -2404.17)" fill="#5a6d9d"/>
      <path id="Path_66" data-name="Path 66" d="M-1662.023,2404.359h2.447l2.51,12.542h-2.122l-.495-2.9h-2.185l-.511,2.9h-2.151Zm2.091,8.192-.852-5.264-.851,5.264Z" transform="translate(1672.752 -2404.22)" fill="#5a6d9d"/>
      <path id="Path_67" data-name="Path 67" d="M-1652.31,2406.046h-2.091v-1.687h6.425v1.688h-2.059V2416.9h-2.276Z" transform="translate(1670.07 -2404.22)" fill="#5a6d9d"/>
      <path id="Path_68" data-name="Path 68" d="M-1643.792,2416.062a4.52,4.52,0,0,1-.921-2.865l1.965-.387a4.35,4.35,0,0,0,.38,1.82,1.106,1.106,0,0,0,1.045.626.945.945,0,0,0,.782-.318,1.334,1.334,0,0,0,.256-.859,2.25,2.25,0,0,0-.333-1.254,6.107,6.107,0,0,0-1.045-1.146l-1.579-1.378a4.883,4.883,0,0,1-1.092-1.339,3.6,3.6,0,0,1-.363-1.7,2.975,2.975,0,0,1,.866-2.292,3.4,3.4,0,0,1,2.4-.805,2.707,2.707,0,0,1,2.306.921,4.561,4.561,0,0,1,.806,2.485l-1.966.341a4.643,4.643,0,0,0-.271-1.533.858.858,0,0,0-.874-.526,1.074,1.074,0,0,0-.829.326,1.2,1.2,0,0,0-.3.851,1.9,1.9,0,0,0,.247,1.008,4.37,4.37,0,0,0,.774.882l1.564,1.378a6.87,6.87,0,0,1,1.379,1.641,3.908,3.908,0,0,1,.5,2,3.176,3.176,0,0,1-.395,1.594,2.805,2.805,0,0,1-1.107,1.091,3.319,3.319,0,0,1-1.642.4A3.21,3.21,0,0,1-1643.792,2416.062Z" transform="translate(1667.505 -2404.17)" fill="#5a6d9d"/>
    </g>
    <g id="Group_34" data-name="Group 34">
      <g id="Group_33" data-name="Group 33">
        <path id="Path_69" data-name="Path 69" d="M-1701.446,2380.7l-1-.58-.48.832,1,.58Zm8.312-2.808.329-.351-.732-.687-.329.352Zm9.352-6.995-.453-.9-.429.217.452.9Zm-12.264,48.623.291.382.8-.607-.293-.384Zm-6.885-1.131.48.834,1.005-.58-.48-.832Zm21.142-53.753-.4-1.09-.9.329.4,1.09Zm-25.532,28.864,1.143.2.166-.947-1.142-.2Zm0,12.344.168.947,1.14-.2-.165-.946Zm12.8,22.835.737.618.745-.889-.735-.616Zm51.466-48.855-.291-.382-.8.607.29.383Zm-29.977-12.065-.115-1-.479.057.117,1Zm41.25,25.741-.166-.947-1.143.2.168.946Zm-12.8-22.836-.737-.617-.745.888.737.618Zm8.416,10.289-.481-.834-1,.581.479.832Zm-15.318-9.028-.405-.26-.542.846.4.26Zm-17.584-10.523h-.96v1.159h.96Zm6.948,6.006-.47-.1-.217.98.468.1Zm6.111-3.534-.9-.329-.4,1.09.9.329Zm-37.025,7.06-.746-.888-.737.617.746.888Zm52.931,41.528.925.393.188-.443-.924-.393Zm2.451,6.18,1,.58.481-.834-1-.579Zm-62.5-9.275-.142-.459-.96.3.143.46Zm66.208-16.462-10.872,1.917v-2.533l5.332-1.644-.141-.458-5.19,1.6V2389l4.073-1.8-.194-.438-3.879,1.715v-1.487a2.957,2.957,0,0,0-.187-.935l7.077-4.086-.479-.833-7.049,4.07a3.009,3.009,0,0,0-.856-.789l-1.588-.907,3.479-2.647-.291-.382-3.642,2.771-2.4-1.369,3.964-3.823-.331-.344-4.067,3.92-1.762-1.005,7.057-8.411-.735-.618-7.17,8.544-2.167-1.237,3.548-5.536-.4-.26-3.562,5.557-2.1-1.2,2.879-5.919-.429-.21-2.868,5.891-1.635-.934,3.827-10.519-.9-.328-3.771,10.364-2.32-1.324,1.2-5.409-.467-.1-1.173,5.265-2.426-1.385.449-4.389-.476-.049-.428,4.179-1.065-.608a2.819,2.819,0,0,0-.988-.317v-8.254h-.96v8.247a2.794,2.794,0,0,0-1.031.326l-1.383.791-.5-4.29-.475.056.524,4.492-2.4,1.373-1.261-5.311-.467.11,1.294,5.448-1.995,1.14-3.771-10.361-.9.329,3.826,10.516-1.937,1.108-2.94-5.834-.428.216,2.952,5.856-2.1,1.2-3.609-5.459-.4.264,3.59,5.434-1.865,1.067-7.172-8.546-.735.616,7.058,8.414-2.087,1.193-4.018-3.767-.328.349,3.911,3.667-2.426,1.387-3.526-2.6-.283.385,3.355,2.479-1.23.7a3.017,3.017,0,0,0-.855.79l-7.058-4.075-.48.833,7.086,4.091a2.906,2.906,0,0,0-.186.935v1.9l-4.027-1.715-.188.441,4.215,1.793v2.759l-5.289-1.552-.135.459,5.424,1.592v2.156l-10.883-1.918-.167.946,11.05,1.948v2.36l-6.572-.338-.024.477,6.6.341v2.416l-6.575.431.032.477,6.543-.43v2.012l-11.05,1.948.167.946,10.883-1.918v2.533l-5.3,1.636.141.457,5.158-1.592v2.79l-4.042,1.787.192.438,3.85-1.7v1.486a3,3,0,0,0,.186.935l-7.085,4.091.479.832,7.058-4.075a2.992,2.992,0,0,0,.855.789l1.59.907-3.456,2.628.289.382,3.617-2.752,2.4,1.369-3.943,3.8.332.344,4.045-3.9,1.76,1.005-7.064,8.418.735.618,7.176-8.552,2.17,1.237-3.531,5.512.4.258,3.543-5.531,2.1,1.2-2.867,5.892.431.21,2.854-5.863,1.635.932-3.832,10.528.9.33,3.776-10.374,2.322,1.323-1.2,5.379.468.1,1.165-5.234,2.428,1.386-.447,4.359.476.049.425-4.148,1.063.607a2.788,2.788,0,0,0,.991.316v8.244h.96v-8.237a2.838,2.838,0,0,0,1.027-.324l1.385-.793.5,4.32.476-.055-.527-4.523,2.4-1.373,1.267,5.342.467-.111-1.3-5.479,2-1.14,3.767,10.352.9-.329-3.824-10.508,1.938-1.107,2.955,5.863.427-.217-2.966-5.884,2.1-1.2,3.625,5.485.4-.264-3.607-5.459,1.867-1.068,7.164,8.539.737-.617-7.054-8.406,2.087-1.192,4.04,3.788.329-.35-3.934-3.687,2.426-1.385,3.55,2.623.285-.386-3.381-2.5,1.23-.7a3.029,3.029,0,0,0,.856-.79l7.048,4.068.48-.831-7.078-4.086a2.962,2.962,0,0,0,.185-.935v-1.9l4.057,1.726.188-.44-4.245-1.806v-2.758l5.319,1.56.135-.459-5.454-1.6v-2.158l10.872,1.917.167-.946-11.039-1.946v-2.357l6.6.34.026-.479-6.628-.341v-2.416l6.6-.433-.03-.478-6.574.432V2395.8l11.039-1.946Zm-11.835,19.448a2.3,2.3,0,0,1-1.008,1.739l-21.73,12.421a2.132,2.132,0,0,1-1.014.231,2.1,2.1,0,0,1-1.011-.23l-21.771-12.423a2.307,2.307,0,0,1-1.01-1.738v-25.365a2.307,2.307,0,0,1,1.008-1.74l21.732-12.42a2.094,2.094,0,0,1,1.012-.232,2.113,2.113,0,0,1,1.013.231l21.769,12.422a2.3,2.3,0,0,1,1.01,1.739Zm9.281-10.738.025-.481-1-.051-.024.48Zm3.411,4.973,1.143.2.166-.948-1.141-.2Zm-69.512-8.861-.024.481,1,.05.026-.479Zm63.655-7.751.14.459.96-.3-.142-.458Zm-60.049-3.095-.925-.395-.187.444.924.393Zm32.923,44.7.116,1,.478-.056-.116-1Zm-21.542-4.168.406.26.541-.845-.4-.26Zm10.635,4.517.469.105.219-.981-.469-.105Zm31.013-10.483-.329.351.733.688.329-.352Zm-37.125,14.017.9.329.4-1.09-.9-.329Zm13.06,2.473h.962v-1.159h-.962Zm12.721-3.234.4,1.09.9-.329-.4-1.09Zm11.244-6.3.746.889.737-.618-.745-.888Zm-9.249.039.451.9.429-.216-.452-.9Z" transform="translate(1707.321 -2361.406)" fill="#5a6d9d"/>
      </g>
    </g>
    <g id="Group_36" data-name="Group 36" transform="translate(33.51 16.925)">
      <g id="Group_35" data-name="Group 35">
        <path id="Path_70" data-name="Path 70" d="M-1653.679,2389.875a1.191,1.191,0,0,0-.247-.329c-.064-.052-.134-.118-.269.112a1.353,1.353,0,0,1-.326.391c-.524.436-1.207.389-1.053.7a1.775,1.775,0,0,0,.671.585,2.994,2.994,0,0,1-2.188,1.294V2389.5h.6v-.629h-.6v-.637h1.749l-.4-.735h-1.351v-.73a1.206,1.206,0,0,0,.815-1.139,1.207,1.207,0,0,0-1.207-1.206,1.206,1.206,0,0,0-1.205,1.206,1.2,1.2,0,0,0,.814,1.139v.73h-1.35l-.4.735h1.749v.637h-.6v.629h.6v3.124a3,3,0,0,1-2.185-1.3,1.762,1.762,0,0,0,.669-.583c.152-.307-.526-.262-1.048-.694a1.348,1.348,0,0,1-.332-.394c-.135-.23-.205-.164-.27-.112a1.228,1.228,0,0,0-.242.319c-.332.574-.673,1.656-.3,1.846a1.118,1.118,0,0,0,.753-.041,3.88,3.88,0,0,0,3.349,1.809,3.88,3.88,0,0,0,3.349-1.808,1.115,1.115,0,0,0,.749.04C-1653.013,2391.522-1653.347,2390.451-1653.679,2389.875Zm-4.2-4.244a.4.4,0,0,1,.4-.4.4.4,0,0,1,.4.4.4.4,0,0,1-.4.4A.4.4,0,0,1-1657.882,2385.631Z" transform="translate(1661.746 -2384.425)" fill="#5a6d9d"/>
      </g>
    </g>
    <g id="Group_41" data-name="Group 41" transform="translate(23.784 52.11)">
      <g id="Group_38" data-name="Group 38">
        <g id="Group_37" data-name="Group 37">
          <path id="Path_71" data-name="Path 71" d="M-1674.973,2432.786v-.506h3.373v.506Z" transform="translate(1674.973 -2432.279)" fill="#5a6d9d"/>
        </g>
      </g>
      <g id="Group_40" data-name="Group 40" transform="translate(24.602)">
        <g id="Group_39" data-name="Group 39">
          <path id="Path_72" data-name="Path 72" d="M-1641.512,2432.786v-.506h3.373v.506Z" transform="translate(1641.512 -2432.279)" fill="#5a6d9d"/>
        </g>
      </g>
    </g>
  </g>
</svg>
