<svg id="Group_57" data-name="Group 57" xmlns="http://www.w3.org/2000/svg" width="68.628" height="69.537" viewBox="0 0 68.628 69.537">
  <g id="Group_56" data-name="Group 56" transform="translate(0)">
    <g id="Group_50" data-name="Group 50" transform="translate(1.545 19.811)">
      <path id="Path_93" data-name="Path 93" d="M-1499.7,2394.128a2.209,2.209,0,0,1-.449.141c-.209.062-.315.094-.319.1v-.633a4.252,4.252,0,0,0,.537-.237,1.387,1.387,0,0,0,.427-.31h.658v4.976h-.854Z" transform="translate(1500.47 -2393.131)" fill="#5a6d9d"/>
      <path id="Path_94" data-name="Path 94" d="M-1495.482,2397.895a1.365,1.365,0,0,1-.31-.943v-.073h.817a1.075,1.075,0,0,0,.089.51.368.368,0,0,0,.347.154.341.341,0,0,0,.335-.231,2.318,2.318,0,0,0,.095-.8v-.589a.564.564,0,0,1-.264.227,1.036,1.036,0,0,1-.424.08q-1.046,0-1.046-1.462a2.087,2.087,0,0,1,.311-1.22,1.12,1.12,0,0,1,.985-.44,1.142,1.142,0,0,1,.983.434,1.928,1.928,0,0,1,.32,1.17v1.763a2.371,2.371,0,0,1-.292,1.272,1.1,1.1,0,0,1-1.011.46A1.228,1.228,0,0,1-1495.482,2397.895Zm1.373-2.578v-.773a1.413,1.413,0,0,0-.095-.572.347.347,0,0,0-.342-.208.343.343,0,0,0-.34.225,1.747,1.747,0,0,0-.1.654,5.033,5.033,0,0,0,.021.526.569.569,0,0,0,.118.3.371.371,0,0,0,.3.117A.473.473,0,0,0-1494.109,2395.317Z" transform="translate(1499.245 -2393.111)" fill="#5a6d9d"/>
      <path id="Path_95" data-name="Path 95" d="M-1490.37,2397.86a1.907,1.907,0,0,1-.273-1.121h.829a1.7,1.7,0,0,0,.092.639.356.356,0,0,0,.362.214.347.347,0,0,0,.3-.132.731.731,0,0,0,.126-.356,5.4,5.4,0,0,0,.027-.624,2.11,2.11,0,0,0-.092-.725.369.369,0,0,0-.381-.233.4.4,0,0,0-.291.117.678.678,0,0,0-.176.319h-.732l.049-2.77h2.237v.761h-1.523l-.049,1.2a.721.721,0,0,1,.3-.187,1.248,1.248,0,0,1,.431-.071.862.862,0,0,1,.782.4,2.112,2.112,0,0,1,.256,1.134,3.684,3.684,0,0,1-.108.964,1.157,1.157,0,0,1-.39.621,1.248,1.248,0,0,1-.8.228A1.129,1.129,0,0,1-1490.37,2397.86Z" transform="translate(1497.869 -2393.131)" fill="#5a6d9d"/>
      <path id="Path_96" data-name="Path 96" d="M-1484.286,2393.838h-1.345v-.65h2.181v.515l-1.007,4.46h-.823Z" transform="translate(1496.542 -2393.131)" fill="#5a6d9d"/>
    </g>
    <g id="Group_51" data-name="Group 51" transform="translate(54.48 19.811)">
      <path id="Path_97" data-name="Path 97" d="M-1428.475,2397.542l1.229-1.9.116-.178a4.917,4.917,0,0,0,.31-.556,1.221,1.221,0,0,0,.1-.507c0-.385-.135-.578-.406-.578a.4.4,0,0,0-.393.215,1.274,1.274,0,0,0-.111.578v.209h-.829v-.221a1.726,1.726,0,0,1,.313-1.1,1.193,1.193,0,0,1,1-.4,1.253,1.253,0,0,1,.949.339,1.33,1.33,0,0,1,.322.958,1.733,1.733,0,0,1-.079.534,2.238,2.238,0,0,1-.191.436c-.074.126-.188.307-.343.541l-1.021,1.541H-1426v.682h-2.476Z" transform="translate(1428.475 -2393.111)" fill="#5a6d9d"/>
      <path id="Path_98" data-name="Path 98" d="M-1423.106,2397.825a1.581,1.581,0,0,1-.331-1.051v-2.206a1.614,1.614,0,0,1,.323-1.069,1.2,1.2,0,0,1,.979-.388,1.183,1.183,0,0,1,.968.391,1.619,1.619,0,0,1,.323,1.065v2.206a1.577,1.577,0,0,1-.332,1.051,1.188,1.188,0,0,1-.959.393A1.2,1.2,0,0,1-1423.106,2397.825Zm1.4-1.063v-2.182a1.39,1.39,0,0,0-.086-.531.336.336,0,0,0-.345-.208.339.339,0,0,0-.349.2,1.369,1.369,0,0,0-.086.534v2.182q0,.723.435.723T-1421.7,2396.762Z" transform="translate(1427.141 -2393.111)" fill="#5a6d9d"/>
      <path id="Path_99" data-name="Path 99" d="M-1417.179,2394.128a2.219,2.219,0,0,1-.448.141c-.209.062-.316.094-.32.1v-.633a4.252,4.252,0,0,0,.538-.237,1.4,1.4,0,0,0,.427-.31h.657v4.976h-.854Z" transform="translate(1425.688 -2393.131)" fill="#5a6d9d"/>
      <path id="Path_100" data-name="Path 100" d="M-1411.939,2393.838h-1.346v-.65h2.181v.515l-1.007,4.46h-.823Z" transform="translate(1424.454 -2393.131)" fill="#5a6d9d"/>
    </g>
    <g id="Group_53" data-name="Group 53" transform="translate(0 51.678)">
      <g id="Group_52" data-name="Group 52">
        <path id="Path_101" data-name="Path 101" d="M-1502.571,2436.453h2.738a3.948,3.948,0,0,1,2.4.63,2.511,2.511,0,0,1,.843,2.149q0,2.095-1.6,2.341,1.915.371,1.916,2.739a3.324,3.324,0,0,1-.767,2.408,3.058,3.058,0,0,1-2.326.821h-3.2Zm2.712,4.531a1.5,1.5,0,0,0,1.2-.39,2,2,0,0,0,.321-1.266,1.357,1.357,0,0,0-.417-1.157,2.4,2.4,0,0,0-1.39-.308h-.409v3.121Zm.082,5.134a1.513,1.513,0,0,0,1.232-.424,2.244,2.244,0,0,0,.342-1.4,2.288,2.288,0,0,0-.376-1.458,1.553,1.553,0,0,0-1.267-.459h-.711v3.737Z" transform="translate(1502.571 -2436.453)" fill="#5a6d9d"/>
        <path id="Path_102" data-name="Path 102" d="M-1483.317,2436.453h2.163l2.218,11.088h-1.876l-.438-2.56h-1.93l-.451,2.56h-1.9Zm1.848,7.242-.753-4.656-.754,4.656Z" transform="translate(1498.061 -2436.453)" fill="#5a6d9d"/>
        <path id="Path_103" data-name="Path 103" d="M-1467.6,2436.453h2.012v4.874l2.2-4.874h1.93l-2.122,4.942,2.341,6.146h-2.012l-1.849-5.037-.493.835v4.2h-2.012Z" transform="translate(1493.314 -2436.453)" fill="#5a6d9d"/>
        <path id="Path_104" data-name="Path 104" d="M-1450.251,2436.453h4.655v1.424h-2.642v3.19h2.081v1.41h-2.081v3.682h2.669v1.382h-4.681Z" transform="translate(1488.72 -2436.453)" fill="#5a6d9d"/>
        <path id="Path_105" data-name="Path 105" d="M-1434.835,2436.453h2.67a4.266,4.266,0,0,1,2.615.663,2.709,2.709,0,0,1,.862,2.28,4.117,4.117,0,0,1-.307,1.718,1.885,1.885,0,0,1-1.061.965l1.546,5.462h-2.026l-1.328-5.078h-.958v5.078h-2.012Zm2.656,4.751a1.6,1.6,0,0,0,1.226-.4,1.9,1.9,0,0,0,.363-1.3,2.023,2.023,0,0,0-.322-1.273,1.421,1.421,0,0,0-1.157-.4h-.753v3.368Z" transform="translate(1484.639 -2436.453)" fill="#5a6d9d"/>
        <path id="Path_106" data-name="Path 106" d="M-1415.684,2443.312l-2.244-6.859h1.888l1.37,4.395,1.286-4.395h1.849l-2.219,6.859v4.229h-1.93Z" transform="translate(1480.163 -2436.453)" fill="#5a6d9d"/>
      </g>
    </g>
    <g id="Group_54" data-name="Group 54" transform="translate(17.457 66.519)">
      <path id="Path_107" data-name="Path 107" d="M-1478.829,2456.682h1.211v.37h-.677v.859h.553v.374h-.553v1.343h-.534Z" transform="translate(1478.829 -2456.649)" fill="#5a6d9d"/>
      <path id="Path_108" data-name="Path 108" d="M-1474.808,2456.682h.709a1.137,1.137,0,0,1,.695.176.719.719,0,0,1,.229.605,1.1,1.1,0,0,1-.082.457.5.5,0,0,1-.282.256l.411,1.452h-.537l-.354-1.35h-.255v1.35h-.534Zm.706,1.261a.421.421,0,0,0,.324-.1.5.5,0,0,0,.1-.346.538.538,0,0,0-.085-.338.377.377,0,0,0-.307-.106h-.2v.895Z" transform="translate(1477.764 -2456.649)" fill="#5a6d9d"/>
      <path id="Path_109" data-name="Path 109" d="M-1470.055,2456.682h1.235v.377h-.7v.848h.553v.375h-.553v.979h.709v.368h-1.243Z" transform="translate(1476.506 -2456.649)" fill="#5a6d9d"/>
      <path id="Path_110" data-name="Path 110" d="M-1465.843,2459.429a1.054,1.054,0,0,1-.216-.673l.462-.091a1.015,1.015,0,0,0,.089.427.26.26,0,0,0,.246.148.222.222,0,0,0,.183-.075.308.308,0,0,0,.06-.2.528.528,0,0,0-.078-.294,1.483,1.483,0,0,0-.246-.269l-.37-.323a1.114,1.114,0,0,1-.257-.315.84.84,0,0,1-.086-.4.7.7,0,0,1,.2-.538.8.8,0,0,1,.565-.189.634.634,0,0,1,.541.216,1.082,1.082,0,0,1,.19.584l-.463.08a1.1,1.1,0,0,0-.063-.36.2.2,0,0,0-.205-.124.257.257,0,0,0-.2.076.285.285,0,0,0-.071.2.437.437,0,0,0,.059.237.96.96,0,0,0,.182.207l.368.324a1.63,1.63,0,0,1,.323.385.922.922,0,0,1,.116.469.746.746,0,0,1-.093.374.663.663,0,0,1-.26.256.781.781,0,0,1-.385.094A.755.755,0,0,1-1465.843,2459.429Z" transform="translate(1475.448 -2456.637)" fill="#5a6d9d"/>
      <path id="Path_111" data-name="Path 111" d="M-1461.53,2456.682h.535v1.229h.6v-1.229h.539v2.946h-.539V2458.3h-.6v1.332h-.535Z" transform="translate(1474.249 -2456.649)" fill="#5a6d9d"/>
      <path id="Path_112" data-name="Path 112" d="M-1453.483,2456.682h.727a1.055,1.055,0,0,1,.638.166.666.666,0,0,1,.224.571c0,.371-.141.578-.426.622.34.064.51.307.51.727a.885.885,0,0,1-.2.641.816.816,0,0,1-.618.218h-.851Zm.72,1.2a.4.4,0,0,0,.318-.1.531.531,0,0,0,.085-.338.359.359,0,0,0-.11-.307.641.641,0,0,0-.37-.082h-.109v.83Zm.022,1.363a.4.4,0,0,0,.326-.112.594.594,0,0,0,.091-.372.607.607,0,0,0-.1-.387.409.409,0,0,0-.335-.122h-.19v.993Z" transform="translate(1472.119 -2456.649)" fill="#5a6d9d"/>
      <path id="Path_113" data-name="Path 113" d="M-1448.75,2456.682h.709a1.139,1.139,0,0,1,.7.176.719.719,0,0,1,.228.605,1.094,1.094,0,0,1-.081.457.5.5,0,0,1-.282.256l.411,1.452h-.539l-.351-1.35h-.254v1.35h-.535Zm.706,1.261a.423.423,0,0,0,.325-.1.5.5,0,0,0,.1-.346.529.529,0,0,0-.086-.338.376.376,0,0,0-.307-.106h-.2v.895Z" transform="translate(1470.866 -2456.649)" fill="#5a6d9d"/>
      <path id="Path_114" data-name="Path 114" d="M-1444,2456.682h1.237v.377h-.7v.848h.553v.375h-.553v.979h.71v.368H-1444Z" transform="translate(1469.608 -2456.649)" fill="#5a6d9d"/>
      <path id="Path_115" data-name="Path 115" d="M-1439.515,2456.682h.574l.59,2.946h-.5l-.117-.681h-.513l-.12.681h-.505Zm.491,1.923-.2-1.237-.2,1.237Z" transform="translate(1468.577 -2456.649)" fill="#5a6d9d"/>
      <path id="Path_116" data-name="Path 116" d="M-1435.342,2456.682h.695a1.343,1.343,0,0,1,.56.1.563.563,0,0,1,.288.295,1.342,1.342,0,0,1,.086.526v1.073a1.429,1.429,0,0,1-.086.541.608.608,0,0,1-.284.312,1.2,1.2,0,0,1-.543.1h-.716Zm.7,2.571a.426.426,0,0,0,.257-.062.277.277,0,0,0,.1-.173,1.844,1.844,0,0,0,.021-.329v-1.127a1.265,1.265,0,0,0-.026-.3.227.227,0,0,0-.107-.151.512.512,0,0,0-.257-.05h-.16v2.189Z" transform="translate(1467.316 -2456.649)" fill="#5a6d9d"/>
    </g>
    <g id="Group_55" data-name="Group 55" transform="translate(14.109)">
      <path id="Path_117" data-name="Path 117" d="M-1471.124,2409.9a.446.446,0,0,1-.072-.005A.452.452,0,0,0-1471.124,2409.9Zm17.553.965h0Zm-.573-22.489.1,1.292-.457-5.649.315.315-.268.268.1,1.261,12.263-12.264a1.387,1.387,0,0,0,0-1.959l-5.069-5.067a1.385,1.385,0,0,0-1.96,0l-10.982,10.982,3.557,3.06-2.626-2.626,3.223-3.224,5.665,5.665-3.223,3.224-1.195-1.195c.009.018.016.035.023.052a1.687,1.687,0,0,0-.092-.2.468.468,0,0,0-.032-.071.745.745,0,0,0-.139-.19c-.221-.223-.689-.649-1.076-.983l-5.539-4.764a1.541,1.541,0,0,0-1.007-.362,1.537,1.537,0,0,0-.994.351l-5.685,4.78c-.2.173-.4.36-.573.532-.084.087-.16.17-.224.247a1.593,1.593,0,0,0-.171.238.6.6,0,0,0-.062.168h0a1.8,1.8,0,0,0-.1.2l-1.2,1.195-3.224-3.224,5.667-5.665,3.223,3.222-1.74,1.743,2.632-2.215-10.944-10.943a1.383,1.383,0,0,0-1.959,0l-5.071,5.067a1.388,1.388,0,0,0,0,1.959l12.266,12.265.1-1.262-.269-.268.315-.315-.543,6.723.191-2.366-12.062,12.06a1.389,1.389,0,0,0,0,1.96l5.071,5.069a1.387,1.387,0,0,0,1.959,0l3.8-3.8-.465,5.775c0,.037-.005.075-.005.111a1.31,1.31,0,0,0,.382.929,1.313,1.313,0,0,0,.663.355h.014l.113.018h.023c.037,0,.077,0,.115.006h17.564l.115-.006h.023l.112-.017a.043.043,0,0,1,.016,0,1.313,1.313,0,0,0,.662-.355,1.3,1.3,0,0,0,.381-.929.909.909,0,0,0-.005-.11l-.517-6.431.051.655,3.8,3.8a1.39,1.39,0,0,0,1.96,0l5.069-5.069a1.387,1.387,0,0,0,0-1.96Zm5.714-21.123a.418.418,0,0,1,.3-.123.423.423,0,0,1,.3.123l5.068,5.069a.411.411,0,0,1,.122.3.416.416,0,0,1-.122.3l-2.925,2.925-5.665-5.666Zm-6.831,6.83,3.224-3.223,5.665,5.666-3.224,3.223Zm-27.036-1.164a.419.419,0,0,1-.122-.3.414.414,0,0,1,.122-.3l5.07-5.069a.417.417,0,0,1,.3-.123.417.417,0,0,1,.3.123l2.925,2.925-5.665,5.666Zm3.606,3.606,5.666-5.666,3.223,3.223-5.665,5.665Zm25.189,13.858,3.223,3.223-3.189,3.189-.48-5.965Zm-9.428-13.355a.587.587,0,0,1,.373-.124.585.585,0,0,1,.378.129l5.244,4.512H-1468.3Zm-8.633,13.355.446.447-.481,5.965-3.19-3.189Zm-5.07,16.4a.416.416,0,0,1-.3.123.414.414,0,0,1-.3-.123l-5.07-5.068a.421.421,0,0,1-.122-.3.417.417,0,0,1,.122-.3l2.925-2.924,5.665,5.665Zm4.9-8.358-.3,3.759-.993.993-5.666-5.665,3.223-3.224,3.768,3.768ZM-1460,2409.9h-4.9v-7.372a.464.464,0,0,1,.125-.313.406.406,0,0,1,.3-.131h4.056a.4.4,0,0,1,.3.131.455.455,0,0,1,.123.313Zm6.5-.1a.348.348,0,0,1-.253.1h-5.281v-7.372a1.427,1.427,0,0,0-1.386-1.462h-4.056a1.427,1.427,0,0,0-1.386,1.462v7.372h-5.442a.491.491,0,0,1-.074-.005h-.006a.353.353,0,0,1-.175-.092.351.351,0,0,1-.1-.247v-.031l2.145-26.556a.5.5,0,0,1,.164-.32.493.493,0,0,1,.331-.137h12.974a.49.49,0,0,1,.332.137.5.5,0,0,1,.164.32l2.143,26.554a.249.249,0,0,1,0,.033A.345.345,0,0,1-1453.5,2409.8Zm.472-7.616-.3-3.76-.029-.368,3.767-3.768,3.224,3.224-5.665,5.665Zm10.264-.469-5.068,5.068a.416.416,0,0,1-.3.122.411.411,0,0,1-.3-.122l-2.925-2.925,5.665-5.665,2.925,2.924a.414.414,0,0,1,.122.3A.418.418,0,0,1-1442.764,2401.717Z" transform="translate(1483.381 -2366.167)" fill="#5a6d9d"/>
    </g>
  </g>
</svg>
