<svg xmlns="http://www.w3.org/2000/svg" width="1920" height="949" viewBox="0 0 1920 949">
  <rect id="Rectangle_11" data-name="Rectangle 11" width="1920" height="949" fill="#f8faff"/>
  <g id="Group_90" data-name="Group 90" transform="translate(2649.751 162.404) rotate(82)" opacity="0.2">
    <path id="Path_231" data-name="Path 231" d="M5261.431,4232.721l48.59,39.321,29.254-23.408Z" transform="translate(-5459.202 -3193.118)" fill="#9abbff"/>
    <path id="Path_232" data-name="Path 232" d="M5196.382,4292.176l29.208,3.908,23.5-63.363Z" transform="translate(-5446.858 -3193.118)" fill="#9abbff"/>
    <path id="Path_233" data-name="Path 233" d="M5255.928,4232.721l-23.5,63.363,72.087-24.042Z" transform="translate(-5453.699 -3193.118)" fill="#6899fe"/>
    <path id="Path_234" data-name="Path 234" d="M5196.382,4306.1l25.138,75.37,4.07-71.462Z" transform="translate(-5446.858 -3207.043)" fill="#c5d8ff"/>
    <path id="Path_235" data-name="Path 235" d="M5321.4,4275.77l54.395,51.965-25.14-75.373Z" transform="translate(-5470.583 -3196.845)" fill="#c5d8ff"/>
    <path id="Path_236" data-name="Path 236" d="M5227.408,4397.474l77.845,15.919-11.283-22.967Z" transform="translate(-5452.746 -3223.046)" fill="#c5d8ff"/>
    <path id="Path_237" data-name="Path 237" d="M5309.561,4381.879l11.283,22.967,52.706-59.458Z" transform="translate(-5468.336 -3214.499)" fill="#9abbff"/>
    <path id="Path_238" data-name="Path 238" d="M5232.432,4305.293l62.492,64.415,9.595-88.456Z" transform="translate(-5453.699 -3202.328)" fill="#3a7bff"/>
    <path id="Path_239" data-name="Path 239" d="M5309.561,4369.708l63.989-36.491-54.395-51.965Z" transform="translate(-5468.336 -3202.328)" fill="#6899fe"/>
    <path id="Path_240" data-name="Path 240" d="M5231.478,4310.925l-4.07,71.462,66.562-7.048Z" transform="translate(-5452.746 -3207.959)" fill="#6899fe"/>
  </g>
</svg>
