<svg xmlns="http://www.w3.org/2000/svg" width="1574.683" height="718.056" viewBox="0 0 1574.683 718.056">
  <g id="Group_79" data-name="Group 79" transform="translate(1394.21 -55.09) rotate(42)" opacity="0.2">
    <path id="Path_231" data-name="Path 231" d="M5261.432,4232.721l37.8,30.586,22.755-18.208Z" transform="translate(-5470.911 -3193.118)" fill="#9abbff"/>
    <path id="Path_232" data-name="Path 232" d="M5196.383,4278.968l22.719,3.04,18.277-49.287Z" transform="translate(-5446.858 -3193.118)" fill="#9abbff"/>
    <path id="Path_233" data-name="Path 233" d="M5250.708,4232.721l-18.277,49.287,56.073-18.7Z" transform="translate(-5460.188 -3193.118)" fill="#6899fe"/>
    <path id="Path_234" data-name="Path 234" d="M5196.383,4306.1l19.553,58.626,3.166-55.586Z" transform="translate(-5446.858 -3220.252)" fill="#c5d8ff"/>
    <path id="Path_235" data-name="Path 235" d="M5321.4,4270.569l42.311,40.421-19.555-58.629Z" transform="translate(-5493.086 -3200.381)" fill="#c5d8ff"/>
    <path id="Path_236" data-name="Path 236" d="M5227.408,4395.908l60.552,12.382-8.776-17.864Z" transform="translate(-5458.331 -3251.432)" fill="#c5d8ff"/>
    <path id="Path_237" data-name="Path 237" d="M5309.561,4373.772l8.776,17.864,41-46.249Z" transform="translate(-5488.708 -3234.778)" fill="#9abbff"/>
    <path id="Path_238" data-name="Path 238" d="M5232.432,4299.953l48.609,50.1,7.463-68.805Z" transform="translate(-5460.188 -3211.063)" fill="#3a7bff"/>
    <path id="Path_239" data-name="Path 239" d="M5309.561,4350.057l49.774-28.384-42.311-40.421Z" transform="translate(-5488.708 -3211.063)" fill="#6899fe"/>
    <path id="Path_240" data-name="Path 240" d="M5230.574,4310.925l-3.166,55.586,51.775-5.482Z" transform="translate(-5458.331 -3222.035)" fill="#6899fe"/>
  </g>
  <g id="Group_81" data-name="Group 81" transform="translate(2632.155 84.762) rotate(81)" opacity="0.2">
    <path id="Path_231-2" data-name="Path 231" d="M5261.432,4232.721l20.258,16.394,12.2-9.76Z" transform="translate(-5489.934 -3193.118)" fill="#9abbff"/>
    <path id="Path_232-2" data-name="Path 232" d="M5196.383,4257.508l12.177,1.629,9.8-26.417Z" transform="translate(-5446.858 -3193.118)" fill="#9abbff"/>
    <path id="Path_233-2" data-name="Path 233" d="M5242.228,4232.721l-9.8,26.417,30.054-10.023Z" transform="translate(-5470.73 -3193.118)" fill="#6899fe"/>
    <path id="Path_234-2" data-name="Path 234" d="M5196.383,4306.1l10.48,31.422,1.7-29.793Z" transform="translate(-5446.858 -3241.711)" fill="#c5d8ff"/>
    <path id="Path_235-2" data-name="Path 235" d="M5321.4,4262.12l22.678,21.665-10.481-31.424Z" transform="translate(-5529.647 -3206.124)" fill="#c5d8ff"/>
    <path id="Path_236-2" data-name="Path 236" d="M5227.408,4393.364l32.455,6.637-4.7-9.575Z" transform="translate(-5467.404 -3297.551)" fill="#c5d8ff"/>
    <path id="Path_237-2" data-name="Path 237" d="M5309.561,4360.6l4.7,9.575,21.974-24.789Z" transform="translate(-5521.805 -3267.727)" fill="#9abbff"/>
    <path id="Path_238-2" data-name="Path 238" d="M5232.432,4291.275l26.054,26.855,4-36.879Z" transform="translate(-5470.73 -3225.256)" fill="#3a7bff"/>
    <path id="Path_239-2" data-name="Path 239" d="M5309.561,4318.131l26.678-15.214-22.678-21.665Z" transform="translate(-5521.805 -3225.256)" fill="#6899fe"/>
    <path id="Path_240-2" data-name="Path 240" d="M5229.1,4310.925l-1.7,29.793,27.75-2.937Z" transform="translate(-5467.404 -3244.905)" fill="#6899fe"/>
  </g>
  <g id="Group_82" data-name="Group 82" transform="translate(1098.84 28.078) rotate(74)" opacity="0.2">
    <path id="Path_231-3" data-name="Path 231" d="M5261.432,4232.721l10.729,8.684,6.461-5.169Z" transform="translate(-5500.269 -3193.118)" fill="#9abbff"/>
    <path id="Path_232-3" data-name="Path 232" d="M5196.383,4245.85l6.45.863,5.188-13.992Z" transform="translate(-5446.858 -3193.118)" fill="#9abbff"/>
    <path id="Path_233-3" data-name="Path 233" d="M5237.621,4232.721l-5.189,13.992,15.919-5.309Z" transform="translate(-5476.458 -3193.118)" fill="#6899fe"/>
    <path id="Path_234-3" data-name="Path 234" d="M5196.383,4306.1l5.551,16.644.9-15.78Z" transform="translate(-5446.858 -3253.37)" fill="#c5d8ff"/>
    <path id="Path_235-3" data-name="Path 235" d="M5321.4,4257.53l12.012,11.476-5.552-16.645Z" transform="translate(-5549.509 -3209.245)" fill="#c5d8ff"/>
    <path id="Path_236-3" data-name="Path 236" d="M5227.408,4391.982l17.19,3.516-2.491-5.072Z" transform="translate(-5472.333 -3322.606)" fill="#c5d8ff"/>
    <path id="Path_237-3" data-name="Path 237" d="M5309.561,4353.446l2.492,5.072,11.639-13.13Z" transform="translate(-5539.786 -3285.627)" fill="#9abbff"/>
    <path id="Path_238-3" data-name="Path 238" d="M5232.432,4286.562l13.8,14.225,2.119-19.534Z" transform="translate(-5476.458 -3232.966)" fill="#3a7bff"/>
    <path id="Path_239-3" data-name="Path 239" d="M5309.561,4300.786l14.131-8.059-12.012-11.476Z" transform="translate(-5539.786 -3232.966)" fill="#6899fe"/>
    <path id="Path_240-3" data-name="Path 240" d="M5228.307,4310.925l-.9,15.78,14.7-1.556Z" transform="translate(-5472.333 -3257.33)" fill="#6899fe"/>
  </g>
</svg>
