<svg xmlns="http://www.w3.org/2000/svg" width="1682.557" height="347.042" viewBox="0 0 1682.557 347.042">
  <g id="Group_83" data-name="Group 83" transform="translate(1174.052 -212.347) rotate(65)" opacity="0.2">
    <path id="Path_231" data-name="Path 231" d="M5261.431,4232.721l48.59,39.321,29.254-23.408Z" transform="translate(-5459.202 -3193.118)" fill="#9abbff"/>
    <path id="Path_232" data-name="Path 232" d="M5196.382,4292.176l29.208,3.908,23.5-63.363Z" transform="translate(-5446.858 -3193.118)" fill="#9abbff"/>
    <path id="Path_233" data-name="Path 233" d="M5255.928,4232.721l-23.5,63.363,72.087-24.042Z" transform="translate(-5453.699 -3193.118)" fill="#6899fe"/>
    <path id="Path_234" data-name="Path 234" d="M5196.382,4306.1l25.138,75.37,4.07-71.462Z" transform="translate(-5446.858 -3207.043)" fill="#c5d8ff"/>
    <path id="Path_235" data-name="Path 235" d="M5321.4,4275.77l54.395,51.965-25.14-75.373Z" transform="translate(-5470.583 -3196.845)" fill="#c5d8ff"/>
    <path id="Path_236" data-name="Path 236" d="M5227.408,4397.474l77.845,15.919-11.283-22.967Z" transform="translate(-5452.746 -3223.046)" fill="#c5d8ff"/>
    <path id="Path_237" data-name="Path 237" d="M5309.561,4381.879l11.283,22.967,52.706-59.458Z" transform="translate(-5468.336 -3214.499)" fill="#9abbff"/>
    <path id="Path_238" data-name="Path 238" d="M5232.432,4305.293l62.492,64.415,9.595-88.456Z" transform="translate(-5453.699 -3202.328)" fill="#3a7bff"/>
    <path id="Path_239" data-name="Path 239" d="M5309.561,4369.708l63.989-36.491-54.395-51.965Z" transform="translate(-5468.336 -3202.328)" fill="#6899fe"/>
    <path id="Path_240" data-name="Path 240" d="M5231.478,4310.925l-4.07,71.462,66.562-7.048Z" transform="translate(-5452.746 -3207.959)" fill="#6899fe"/>
  </g>
  <g id="Group_85" data-name="Group 85" transform="translate(2735.632 219.986) rotate(74)" opacity="0.2">
    <path id="Path_231-2" data-name="Path 231" d="M5261.432,4232.721l20.652,16.715,12.437-9.951Z" transform="translate(-5489.504 -3193.118)" fill="#9abbff"/>
    <path id="Path_232-2" data-name="Path 232" d="M5196.383,4257.993l12.416,1.661,9.987-26.933Z" transform="translate(-5446.858 -3193.118)" fill="#9abbff"/>
    <path id="Path_233-2" data-name="Path 233" d="M5242.42,4232.721l-9.988,26.933,30.643-10.218Z" transform="translate(-5470.493 -3193.118)" fill="#6899fe"/>
    <path id="Path_234-2" data-name="Path 234" d="M5196.383,4306.1l10.685,32.037,1.731-30.375Z" transform="translate(-5446.858 -3241.227)" fill="#c5d8ff"/>
    <path id="Path_235-2" data-name="Path 235" d="M5321.4,4262.312l23.12,22.089-10.686-32.039Z" transform="translate(-5528.822 -3205.995)" fill="#c5d8ff"/>
    <path id="Path_236-2" data-name="Path 236" d="M5227.409,4393.422l33.089,6.768-4.795-9.764Z" transform="translate(-5467.2 -3296.51)" fill="#c5d8ff"/>
    <path id="Path_237-2" data-name="Path 237" d="M5309.561,4360.9l4.8,9.763,22.4-25.273Z" transform="translate(-5521.058 -3266.983)" fill="#9abbff"/>
    <path id="Path_238-2" data-name="Path 238" d="M5232.432,4291.473l26.563,27.38,4.079-37.6Z" transform="translate(-5470.493 -3224.936)" fill="#3a7bff"/>
    <path id="Path_239-2" data-name="Path 239" d="M5309.561,4318.853l27.2-15.512-23.12-22.089Z" transform="translate(-5521.058 -3224.936)" fill="#6899fe"/>
    <path id="Path_240-2" data-name="Path 240" d="M5229.138,4310.925l-1.729,30.375,28.294-2.994Z" transform="translate(-5467.2 -3244.389)" fill="#6899fe"/>
  </g>
</svg>
