<svg xmlns="http://www.w3.org/2000/svg" width="808.201" height="503.775" viewBox="0 0 808.201 503.775">
  <g id="Group_84" data-name="Group 84" transform="translate(1640.054 -589.493) rotate(43)" opacity="0.2">
    <path id="Path_231" data-name="Path 231" d="M5261.432,4232.721l28.462,23.033,17.137-13.712Z" transform="translate(-5481.035 -3193.118)" fill="#9abbff"/>
    <path id="Path_232" data-name="Path 232" d="M5196.383,4267.547l17.109,2.289,13.763-37.116Z" transform="translate(-5446.858 -3193.118)" fill="#9abbff"/>
    <path id="Path_233" data-name="Path 233" d="M5246.2,4232.721l-13.764,37.116,42.226-14.083Z" transform="translate(-5465.798 -3193.118)" fill="#6899fe"/>
    <path id="Path_234" data-name="Path 234" d="M5196.383,4306.1l14.725,44.148,2.384-41.859Z" transform="translate(-5446.858 -3231.672)" fill="#c5d8ff"/>
    <path id="Path_235" data-name="Path 235" d="M5321.4,4266.073l31.862,30.439-14.727-44.15Z" transform="translate(-5512.543 -3203.437)" fill="#c5d8ff"/>
    <path id="Path_236" data-name="Path 236" d="M5227.408,4394.554l45.6,9.325-6.609-13.453Z" transform="translate(-5463.159 -3275.976)" fill="#c5d8ff"/>
    <path id="Path_237" data-name="Path 237" d="M5309.561,4366.763l6.609,13.453,30.873-34.828Z" transform="translate(-5506.322 -3252.313)" fill="#9abbff"/>
    <path id="Path_238" data-name="Path 238" d="M5232.432,4295.335l36.605,37.731,5.62-51.814Z" transform="translate(-5465.798 -3218.616)" fill="#3a7bff"/>
    <path id="Path_239" data-name="Path 239" d="M5309.561,4333.066l37.482-21.375-31.862-30.439Z" transform="translate(-5506.322 -3218.616)" fill="#6899fe"/>
    <path id="Path_240" data-name="Path 240" d="M5229.792,4310.925l-2.384,41.859,38.989-4.128Z" transform="translate(-5463.159 -3234.207)" fill="#6899fe"/>
  </g>
  <g id="Group_87" data-name="Group 87" transform="translate(946.054 -212.493) rotate(43)" opacity="0.2">
    <path id="Path_231-2" data-name="Path 231" d="M5261.432,4232.721l28.462,23.033,17.137-13.712Z" transform="translate(-5481.035 -3193.118)" fill="#9abbff"/>
    <path id="Path_232-2" data-name="Path 232" d="M5196.383,4267.547l17.109,2.289,13.763-37.116Z" transform="translate(-5446.858 -3193.118)" fill="#9abbff"/>
    <path id="Path_233-2" data-name="Path 233" d="M5246.2,4232.721l-13.764,37.116,42.226-14.083Z" transform="translate(-5465.798 -3193.118)" fill="#6899fe"/>
    <path id="Path_234-2" data-name="Path 234" d="M5196.383,4306.1l14.725,44.148,2.384-41.859Z" transform="translate(-5446.858 -3231.672)" fill="#c5d8ff"/>
    <path id="Path_235-2" data-name="Path 235" d="M5321.4,4266.073l31.862,30.439-14.727-44.15Z" transform="translate(-5512.543 -3203.437)" fill="#c5d8ff"/>
    <path id="Path_236-2" data-name="Path 236" d="M5227.408,4394.554l45.6,9.325-6.609-13.453Z" transform="translate(-5463.159 -3275.976)" fill="#c5d8ff"/>
    <path id="Path_237-2" data-name="Path 237" d="M5309.561,4366.763l6.609,13.453,30.873-34.828Z" transform="translate(-5506.322 -3252.313)" fill="#9abbff"/>
    <path id="Path_238-2" data-name="Path 238" d="M5232.432,4295.335l36.605,37.731,5.62-51.814Z" transform="translate(-5465.798 -3218.616)" fill="#3a7bff"/>
    <path id="Path_239-2" data-name="Path 239" d="M5309.561,4333.066l37.482-21.375-31.862-30.439Z" transform="translate(-5506.322 -3218.616)" fill="#6899fe"/>
    <path id="Path_240-2" data-name="Path 240" d="M5229.792,4310.925l-2.384,41.859,38.989-4.128Z" transform="translate(-5463.159 -3234.207)" fill="#6899fe"/>
  </g>
</svg>
