<svg xmlns="http://www.w3.org/2000/svg" width="1522.176" height="201.413" viewBox="0 0 1522.176 201.413">
  <g id="Group_76" data-name="Group 76" transform="translate(1580.498 -1039.603)" opacity="0.2">
    <path id="Path_231" data-name="Path 231" d="M5261.432,4232.721l59.971,48.531,36.106-28.891Z" transform="translate(-5446.858 -3193.118)" fill="#9abbff"/>
    <path id="Path_232" data-name="Path 232" d="M5196.383,4306.1l36.049,4.823,29-78.2Z" transform="translate(-5446.858 -3193.118)" fill="#9abbff"/>
    <path id="Path_233" data-name="Path 233" d="M5261.432,4232.721l-29,78.2,88.971-29.673Z" transform="translate(-5446.858 -3193.118)" fill="#6899fe"/>
    <path id="Path_234" data-name="Path 234" d="M5196.383,4306.1l31.025,93.022,5.023-88.2Z" transform="translate(-5446.858 -3193.118)" fill="#c5d8ff"/>
    <path id="Path_235" data-name="Path 235" d="M5321.4,4281.252l67.135,64.136-31.028-93.026Z" transform="translate(-5446.858 -3193.118)" fill="#c5d8ff"/>
    <path id="Path_236" data-name="Path 236" d="M5227.408,4399.124l96.078,19.647-13.926-28.346Z" transform="translate(-5446.858 -3193.118)" fill="#c5d8ff"/>
    <path id="Path_237" data-name="Path 237" d="M5309.561,4390.426l13.926,28.346,65.051-73.384Z" transform="translate(-5446.858 -3193.118)" fill="#9abbff"/>
    <path id="Path_238" data-name="Path 238" d="M5232.432,4310.925l77.129,79.5,11.842-109.174Z" transform="translate(-5446.858 -3193.118)" fill="#3a7bff"/>
    <path id="Path_239" data-name="Path 239" d="M5309.561,4390.426l78.977-45.038-67.135-64.136Z" transform="translate(-5446.858 -3193.118)" fill="#6899fe"/>
    <path id="Path_240" data-name="Path 240" d="M5232.432,4310.925l-5.023,88.2,82.152-8.7Z" transform="translate(-5446.858 -3193.118)" fill="#6899fe"/>
  </g>
  <g id="Group_77" data-name="Group 77" transform="translate(946.054 -514.855) rotate(43)" opacity="0.2">
    <path id="Path_231-2" data-name="Path 231" d="M5261.432,4232.721l28.462,23.033,17.137-13.712Z" transform="translate(-5481.035 -3193.118)" fill="#9abbff"/>
    <path id="Path_232-2" data-name="Path 232" d="M5196.383,4267.547l17.109,2.289,13.763-37.116Z" transform="translate(-5446.858 -3193.118)" fill="#9abbff"/>
    <path id="Path_233-2" data-name="Path 233" d="M5246.2,4232.721l-13.764,37.116,42.226-14.083Z" transform="translate(-5465.798 -3193.118)" fill="#6899fe"/>
    <path id="Path_234-2" data-name="Path 234" d="M5196.383,4306.1l14.725,44.148,2.384-41.859Z" transform="translate(-5446.858 -3231.672)" fill="#c5d8ff"/>
    <path id="Path_235-2" data-name="Path 235" d="M5321.4,4266.073l31.862,30.439-14.727-44.15Z" transform="translate(-5512.543 -3203.437)" fill="#c5d8ff"/>
    <path id="Path_236-2" data-name="Path 236" d="M5227.408,4394.554l45.6,9.325-6.609-13.453Z" transform="translate(-5463.159 -3275.976)" fill="#c5d8ff"/>
    <path id="Path_237-2" data-name="Path 237" d="M5309.561,4366.763l6.609,13.453,30.873-34.828Z" transform="translate(-5506.322 -3252.313)" fill="#9abbff"/>
    <path id="Path_238-2" data-name="Path 238" d="M5232.432,4295.335l36.605,37.731,5.62-51.814Z" transform="translate(-5465.798 -3218.616)" fill="#3a7bff"/>
    <path id="Path_239-2" data-name="Path 239" d="M5309.561,4333.066l37.482-21.375-31.862-30.439Z" transform="translate(-5506.322 -3218.616)" fill="#6899fe"/>
    <path id="Path_240-2" data-name="Path 240" d="M5229.792,4310.925l-2.384,41.859,38.989-4.128Z" transform="translate(-5463.159 -3234.207)" fill="#6899fe"/>
  </g>
</svg>
