<svg xmlns="http://www.w3.org/2000/svg" width="45.441" height="45.542" viewBox="0 0 45.441 45.542">
  <path id="Path_1" data-name="Path 1" d="M-1805.193,1423.1l-.008,0-20.705-13.983,3.751,7.784-22.782-16.032,12.713,18.653.019.058-7.548-4.183,16.793,25.078a12.7,12.7,0,0,0,10.752,5.935A12.714,12.714,0,0,0-1799.5,1433.7,12.7,12.7,0,0,0-1805.193,1423.1Zm-7.016,19.076c-3.648-.007-6.338-2.333-7.949-5.54h-.006l-5.779-8.245,7.5,3.708-9.4-14.2,16.545,11.889-3.761-7.544,1.413.309,5.944,3.979v0a8.48,8.48,0,0,1,3.962,7.166A8.488,8.488,0,0,1-1812.209,1442.179Z" transform="translate(1844.938 -1400.875)" fill="#5ad9b9"/>
</svg>
