<svg xmlns="http://www.w3.org/2000/svg" width="25.158" height="25.158" viewBox="0 0 25.158 25.158">
  <g id="Group_9" data-name="Group 9" transform="translate(1102.154 -3970.105)">
    <circle id="Ellipse_1" data-name="Ellipse 1" cx="12.579" cy="12.579" r="12.579" transform="translate(-1102.154 3970.105)" fill="#f8cf00"/>
    <g id="Group_8" data-name="Group 8" transform="translate(-1099.032 3974.786)">
      <g id="Group_7" data-name="Group 7" transform="translate(4.554)">
        <g id="Group_6" data-name="Group 6">
          <path id="Path_7" data-name="Path 7" d="M-1055.99,4001.242a1.157,1.157,0,0,1-1.146,1.169h-.144a1.158,1.158,0,0,1-1.146-1.169v-3.3a1.157,1.157,0,0,1,1.146-1.168h.144a1.157,1.157,0,0,1,1.146,1.168Z" transform="translate(1058.425 -3996.772)" fill="#09192c"/>
          <path id="Path_8" data-name="Path 8" d="M-1013.99,4001.242a1.157,1.157,0,0,1-1.146,1.169h-.143a1.157,1.157,0,0,1-1.146-1.169v-3.3a1.157,1.157,0,0,1,1.146-1.168h.143a1.157,1.157,0,0,1,1.146,1.168Z" transform="translate(1023.797 -3996.772)" fill="#09192c"/>
        </g>
      </g>
      <path id="Path_9" data-name="Path 9" d="M-1065.47,4048.545c0-.039.012-.076.016-.115h0c0-.011,0-.021,0-.033a.891.891,0,0,0-.89-.892h-17.132a.891.891,0,0,0-.89.892c0,.011,0,.021,0,.033h0c0,.039.011.076.016.115,0,.013,0,.026.006.039a9.521,9.521,0,0,0,9.436,8.271,9.521,9.521,0,0,0,9.436-8.271C-1065.472,4048.571-1065.472,4048.558-1065.47,4048.545Z" transform="translate(1084.368 -4038.601)" fill="#532a03"/>
      <path id="Path_10" data-name="Path 10" d="M-1055.769,4080.074a9.469,9.469,0,0,0,4.438,1.1,9.468,9.468,0,0,0,4.437-1.1,4.74,4.74,0,0,0-4.437-3.074A4.74,4.74,0,0,0-1055.769,4080.074Z" transform="translate(1060.789 -4062.918)" fill="#e74700"/>
    </g>
  </g>
</svg>
