<svg xmlns="http://www.w3.org/2000/svg" width="49.082" height="49.19" viewBox="0 0 49.082 49.19">
  <path id="Path_244" data-name="Path 244" d="M-1802.009,1424.884l-.009,0-22.364-15.1,4.052,8.407-24.608-17.316,13.731,20.147.021.063-8.153-4.518,18.139,27.087a13.716,13.716,0,0,0,11.613,6.411,13.733,13.733,0,0,0,13.731-13.732A13.717,13.717,0,0,0-1802.009,1424.884Zm-7.578,20.6c-3.94-.008-6.845-2.52-8.586-5.984h-.007l-6.242-8.906,8.1,4.005-10.149-15.339,17.871,12.841-4.062-8.149,1.526.334,6.42,4.3,0,0a9.159,9.159,0,0,1,4.279,7.741A9.168,9.168,0,0,1-1809.588,1445.488Z" transform="translate(1844.938 -1400.875)" fill="#fff"/>
</svg>
